autobahn.sfdir
StartChar: exclam
Encoding: 33 33 222
Width: 269
Flags: W
LayerCount: 2
Back
Fore
SplineSet
234 588 m 1,0,-1
 135 228 l 1,1,-1
 35 588 l 1,2,-1
 131 720 l 1,3,-1
 234 588 l 1,0,-1
234 99 m 1,4,-1
 135 0 l 1,5,-1
 35 99 l 1,6,-1
 135 198 l 1,7,-1
 234 99 l 1,4,-1
EndSplineSet
EndChar
StartChar: quotedbl
Encoding: 34 34 129
Width: 376
Flags: W
LayerCount: 2
Back
Fore
SplineSet
324 636 m 1,0,-1
 261 408 l 1,1,-1
 198 636 l 1,2,-1
 259 720 l 1,3,-1
 324 636 l 1,0,-1
161 636 m 1,4,-1
 98 408 l 1,5,-1
 35 636 l 1,6,-1
 96 720 l 1,7,-1
 161 636 l 1,4,-1
EndSplineSet
EndChar
StartChar: numbersign
Encoding: 35 35 194
Width: 507
Flags: W
LayerCount: 2
Back
Fore
SplineSet
96 383 m 1,0,-1
 166 383 l 1,1,-1
 192 485 l 1,2,-1
 275 485 l 1,3,-1
 249 383 l 1,4,-1
 322 383 l 1,5,-1
 348 485 l 1,6,-1
 431 485 l 1,7,-1
 405 383 l 1,8,-1
 479 383 l 1,9,-1
 462 316 l 1,10,-1
 388 316 l 1,11,-1
 361 213 l 1,12,-1
 435 213 l 1,13,-1
 418 146 l 1,14,-1
 344 146 l 1,15,-1
 320 54 l 1,16,-1
 237 54 l 1,17,-1
 261 146 l 1,18,-1
 188 146 l 1,19,-1
 164 54 l 1,20,-1
 81 54 l 1,21,-1
 105 146 l 1,22,-1
 35 146 l 1,23,-1
 52 213 l 1,24,-1
 122 213 l 1,25,-1
 149 316 l 1,26,-1
 79 316 l 1,27,-1
 96 383 l 1,0,-1
205 213 m 1,28,-1
 278 213 l 1,29,-1
 305 316 l 1,30,-1
 232 316 l 1,31,-1
 205 213 l 1,28,-1
EndSplineSet
EndChar
StartChar: dollar
Encoding: 36 36 130
Width: 458
Flags: W
LayerCount: 2
Back
Fore
SplineSet
35 298 m 1,0,-1
 36 299 l 1,1,-1
 36 515 l 1,2,-1
 168 662 l 1,3,-1
 190 662 l 1,4,-1
 190 750 l 1,5,-1
 267 750 l 1,6,-1
 267 662 l 1,7,-1
 417 662 l 1,8,-1
 349 522 l 1,9,-1
 190 522 l 1,10,-1
 190 401 l 1,11,-1
 223 378 l 1,12,-1
 292 488 l 1,13,-1
 423 402 l 1,14,-1
 422 401 l 1,15,-1
 422 192 l 1,16,-1
 291 45 l 1,17,-1
 267 45 l 1,18,-1
 267 -39 l 1,19,-1
 190 -39 l 1,20,-1
 190 45 l 1,21,-1
 42 45 l 1,22,-1
 109 185 l 1,23,-1
 268 185 l 1,24,-1
 268 299 l 1,25,-1
 236 322 l 1,26,-1
 166 212 l 1,27,-1
 35 298 l 1,0,-1
EndSplineSet
EndChar
StartChar: percent
Encoding: 37 37 120
Width: 793
Flags: W
LayerCount: 2
Back
Fore
SplineSet
514 321 m 1,0,-1
 645 321 l 2,1,2
 664 321 664 321 681.5 313.5 c 128,-1,3
 699 306 699 306 712.5 292.5 c 128,-1,4
 726 279 726 279 733.5 261.5 c 128,-1,5
 741 244 741 244 741 225 c 2,6,-1
 741 140 l 1,7,-1
 613 0 l 1,8,-1
 482 0 l 2,9,10
 442 0 442 0 414 28 c 128,-1,11
 386 56 386 56 386 96 c 2,12,-1
 386 181 l 1,13,-1
 514 321 l 1,0,-1
597 164 m 2,14,15
 597 183 597 183 584 196 c 128,-1,16
 571 209 571 209 552 209 c 2,17,-1
 530 209 l 1,18,-1
 530 157 l 2,19,20
 530 138 530 138 543 125 c 128,-1,21
 556 112 556 112 575 112 c 2,22,-1
 597 112 l 1,23,-1
 597 164 l 2,14,15
744 700 m 1,24,-1
 153 0 l 1,25,-1
 33 0 l 1,26,-1
 624 700 l 1,27,-1
 744 700 l 1,24,-1
163 700 m 1,28,-1
 294 700 l 2,29,30
 313 700 313 700 330.5 692.5 c 128,-1,31
 348 685 348 685 361.5 671.5 c 128,-1,32
 375 658 375 658 382.5 640.5 c 128,-1,33
 390 623 390 623 390 604 c 2,34,-1
 390 519 l 1,35,-1
 262 379 l 1,36,-1
 131 379 l 2,37,38
 91 379 91 379 63 407 c 128,-1,39
 35 435 35 435 35 475 c 2,40,-1
 35 560 l 1,41,-1
 163 700 l 1,28,-1
246 543 m 2,42,43
 246 562 246 562 233 575 c 128,-1,44
 220 588 220 588 201 588 c 2,45,-1
 179 588 l 1,46,-1
 179 536 l 2,47,48
 179 517 179 517 192 504 c 128,-1,49
 205 491 205 491 224 491 c 2,50,-1
 246 491 l 1,51,-1
 246 543 l 2,42,43
EndSplineSet
EndChar
StartChar: ampersand
Encoding: 38 38 8
Width: 532
Flags: W
LayerCount: 2
Back
Fore
SplineSet
263 436 m 1,0,-1
 271 442 l 1,1,-1
 271 552 l 1,2,-1
 198 552 l 1,3,-1
 263 436 l 1,0,-1
265 140 m 1,4,-1
 187 279 l 1,5,-1
 179 273 l 1,6,-1
 179 140 l 1,7,-1
 265 140 l 1,4,-1
220 0 m 1,8,-1
 35 0 l 1,9,-1
 35 273 l 1,10,-1
 157 340 l 1,11,-1
 65 496 l 1,12,-1
 181 664 l 1,13,-1
 321 664 l 2,14,15
 355 664 355 664 379 640 c 128,-1,16
 403 616 403 616 403 582 c 2,17,-1
 403 444 l 1,18,-1
 294 379 l 1,19,-1
 430 140 l 1,20,-1
 497 140 l 1,21,22
 480 105 480 105 463 70 c 128,-1,23
 446 35 446 35 429 0 c 1,24,-1
 343 0 l 1,25,-1
 277 118 l 1,26,-1
 220 0 l 1,8,-1
EndSplineSet
EndChar
StartChar: quotesingle
Encoding: 39 39 128
Width: 195
Flags: W
LayerCount: 2
Back
Fore
SplineSet
161 636 m 1,0,-1
 98 408 l 1,1,-1
 35 636 l 1,2,-1
 96 720 l 1,3,-1
 161 636 l 1,0,-1
EndSplineSet
EndChar
StartChar: parenleft
Encoding: 40 40 93
Width: 310
Flags: W
LayerCount: 2
Back
Fore
SplineSet
275 700 m 1,0,-1
 144 541 l 1,1,-1
 144 -6 l 1,2,-1
 275 -165 l 1,3,-1
 155 -165 l 1,4,-1
 35 -18 l 1,5,-1
 35 554 l 1,6,-1
 155 700 l 1,7,-1
 275 700 l 1,8,-1
 275 700 l 1,0,-1
EndSplineSet
EndChar
StartChar: parenright
Encoding: 41 41 12
Width: 310
Flags: W
LayerCount: 2
Back
Fore
SplineSet
35 700 m 1,0,-1
 155 700 l 1,1,-1
 275 554 l 1,2,-1
 275 -18 l 1,3,-1
 155 -165 l 1,4,-1
 35 -165 l 1,5,-1
 166 -6 l 1,6,-1
 166 541 l 1,7,-1
 35 700 l 1,8,-1
 35 700 l 1,0,-1
EndSplineSet
EndChar
StartChar: asterisk
Encoding: 42 42 86
Width: 340
Flags: W
LayerCount: 2
Back
Fore
SplineSet
137 625 m 1,0,-1
 170 723 l 1,1,-1
 203 625 l 1,2,-1
 305 645 l 1,3,4
 301 640 301 640 290.5 629.5 c 128,-1,5
 280 619 280 619 269.5 607 c 128,-1,6
 259 595 259 595 251 583.5 c 128,-1,7
 243 572 243 572 243 566 c 256,8,9
 243 560 243 560 251 549 c 128,-1,10
 259 538 259 538 269.5 526.5 c 128,-1,11
 280 515 280 515 290.5 504.5 c 128,-1,12
 301 494 301 494 305 490 c 2,13,-1
 203 510 l 1,14,-1
 170 412 l 1,15,-1
 137 510 l 1,16,-1
 35 490 l 1,17,-1
 103 567 l 1,18,-1
 35 645 l 1,19,-1
 137 625 l 1,0,-1
EndSplineSet
EndChar
StartChar: plus
Encoding: 43 43 135
Width: 528
Flags: W
LayerCount: 2
Back
Fore
SplineSet
95 336 m 1,0,-1
 217 336 l 1,1,-1
 217 458 l 1,2,-1
 320 505 l 1,3,-1
 320 336 l 1,4,-1
 490 336 l 1,5,-1
 443 233 l 1,6,-1
 320 233 l 1,7,-1
 320 110 l 1,8,-1
 217 63 l 1,9,-1
 217 233 l 1,10,-1
 48 233 l 1,11,-1
 95 336 l 1,0,-1
EndSplineSet
EndChar
StartChar: comma
Encoding: 44 44 9
Width: 252
Flags: W
LayerCount: 2
Back
Fore
SplineSet
201 138 m 2,0,1
 217 122 217 122 217 99 c 0,2,3
 217 79 217 79 201 61 c 0,4,5
 171 29 171 29 140 -1.5 c 128,-1,6
 109 -32 109 -32 78 -63 c 1,7,-1
 35 -20 l 1,8,-1
 98 43 l 1,9,-1
 41 99 l 1,10,-1
 140 198 l 1,11,-1
 201 138 l 2,0,1
EndSplineSet
EndChar
StartChar: hyphen
Encoding: 45 45 10
Width: 353
Flags: W
LayerCount: 2
Back
Fore
SplineSet
35 206 m 1,0,-1
 95 336 l 1,1,-1
 318 336 l 1,2,-1
 258 206 l 1,3,-1
 35 206 l 1,4,-1
 35 206 l 1,0,-1
EndSplineSet
EndChar
StartChar: period
Encoding: 46 46 11
Width: 271
Flags: W
LayerCount: 2
Back
Fore
SplineSet
134 198 m 1,0,-1
 233 99 l 1,1,-1
 134 0 l 1,2,-1
 35 99 l 1,3,-1
 134 198 l 1,4,-1
 134 198 l 1,0,-1
EndSplineSet
EndChar
StartChar: slash
Encoding: 47 47 94
Width: 433
Flags: W
LayerCount: 2
Back
Fore
SplineSet
312 700 m 1,0,-1
 432 700 l 1,1,-1
 120 -165 l 1,2,-1
 0 -165 l 1,3,-1
 312 700 l 1,4,-1
 312 700 l 1,0,-1
EndSplineSet
EndChar
StartChar: zero
Encoding: 48 48 1
Width: 425
Flags: W
LayerCount: 2
Back
Fore
SplineSet
163 700 m 1,0,-1
 294 700 l 2,1,2
 313 700 313 700 330.5 692.5 c 128,-1,3
 348 685 348 685 361.5 671.5 c 128,-1,4
 375 658 375 658 382.5 640.5 c 128,-1,5
 390 623 390 623 390 604 c 2,6,-1
 390 140 l 1,7,-1
 262 0 l 1,8,-1
 131 0 l 2,9,10
 91 0 91 0 63 28 c 128,-1,11
 35 56 35 56 35 96 c 2,12,-1
 35 560 l 1,13,-1
 163 700 l 1,0,-1
246 543 m 2,14,15
 246 562 246 562 233 575 c 128,-1,16
 220 588 220 588 201 588 c 2,17,-1
 179 588 l 1,18,-1
 179 157 l 2,19,20
 179 138 179 138 192 125 c 128,-1,21
 205 112 205 112 224 112 c 2,22,-1
 246 112 l 1,23,-1
 246 543 l 2,14,15
EndSplineSet
EndChar
StartChar: one
Encoding: 49 49 16
Width: 207
Flags: W
LayerCount: 2
Back
Fore
SplineSet
33 700 m 1,0,-1
 172 700 l 1,1,-1
 172 0 l 1,2,-1
 33 0 l 1,3,-1
 33 599 l 1,4,-1
 -27 598 l 1,5,-1
 33 700 l 1,6,-1
 33 700 l 1,0,-1
EndSplineSet
EndChar
StartChar: two
Encoding: 50 50 17
Width: 434
Flags: W
LayerCount: 2
Back
Fore
SplineSet
251 700 m 2,0,1
 291 700 291 700 319 672 c 128,-1,2
 347 644 347 644 347 604 c 2,3,-1
 347 358 l 1,4,-1
 197 140 l 1,5,-1
 399 140 l 1,6,-1
 329 0 l 1,7,-1
 36 0 l 1,8,-1
 203 269 l 1,9,-1
 203 543 l 2,10,11
 203 561 203 561 190.5 574.5 c 128,-1,12
 178 588 178 588 159 588 c 2,13,-1
 35 588 l 1,14,-1
 84 700 l 1,15,-1
 251 700 l 2,0,1
EndSplineSet
EndChar
StartChar: three
Encoding: 51 51 18
Width: 382
Flags: W
LayerCount: 2
Back
Fore
SplineSet
203 140 m 1,0,-1
 203 289 l 2,1,2
 203 307 203 307 189.5 320.5 c 128,-1,3
 176 334 176 334 158 334 c 256,4,5
 140 334 140 334 122.5 333.5 c 128,-1,6
 105 333 105 333 87 333 c 1,7,-1
 203 445 l 1,8,-1
 179 445 l 1,9,-1
 203 445 l 1,10,-1
 203 543 l 2,11,12
 203 562 203 562 190 575 c 128,-1,13
 177 588 177 588 158 588 c 2,14,-1
 35 588 l 1,15,-1
 83 700 l 1,16,-1
 250 700 l 2,17,18
 270 700 270 700 287.5 692.5 c 128,-1,19
 305 685 305 685 318.5 672 c 128,-1,20
 332 659 332 659 339.5 641.5 c 128,-1,21
 347 624 347 624 347 604 c 2,22,-1
 347 513 l 1,23,-1
 266 444 l 1,24,25
 301 439 301 439 324 411.5 c 128,-1,26
 347 384 347 384 347 349 c 2,27,-1
 347 140 l 1,28,-1
 241 0 l 1,29,-1
 35 0 l 1,30,-1
 101 140 l 1,31,-1
 203 140 l 1,0,-1
EndSplineSet
EndChar
StartChar: four
Encoding: 52 52 19
Width: 423
Flags: W
LayerCount: 2
Back
Fore
SplineSet
347 295 m 1,0,-1
 388 295 l 1,1,-1
 362 202 l 1,2,-1
 347 202 l 1,3,-1
 347 0 l 1,4,-1
 203 0 l 1,5,-1
 203 202 l 1,6,-1
 -16 202 l 1,7,-1
 221 700 l 1,8,-1
 347 700 l 1,9,-1
 347 295 l 1,0,-1
203 512 m 1,10,-1
 100 295 l 1,11,-1
 203 295 l 1,12,-1
 203 512 l 1,10,-1
EndSplineSet
EndChar
StartChar: five
Encoding: 53 53 20
Width: 384
Flags: W
LayerCount: 2
Back
Fore
SplineSet
205 140 m 1,0,-1
 205 290 l 2,1,2
 205 308 205 308 192.5 321.5 c 128,-1,3
 180 335 180 335 161 335 c 2,4,-1
 73 335 l 1,5,-1
 73 700 l 1,6,-1
 344 700 l 1,7,-1
 293 588 l 1,8,-1
 161 588 l 1,9,-1
 161 447 l 1,10,-1
 253 447 l 2,11,12
 293 447 293 447 321 419 c 128,-1,13
 349 391 349 391 349 351 c 2,14,-1
 349 139 l 1,15,-1
 242 0 l 1,16,-1
 35 0 l 1,17,-1
 102 140 l 1,18,-1
 205 140 l 1,0,-1
EndSplineSet
EndChar
StartChar: six
Encoding: 54 54 21
Width: 424
Flags: W
LayerCount: 2
Back
Fore
SplineSet
222 473 m 1,0,-1
 293 473 l 2,1,2
 333 473 333 473 361 445 c 128,-1,3
 389 417 389 417 389 377 c 2,4,-1
 389 140 l 1,5,-1
 261 0 l 1,6,-1
 131 0 l 2,7,8
 91 0 91 0 63 28 c 128,-1,9
 35 56 35 56 35 96 c 2,10,-1
 35 560 l 1,11,-1
 151 700 l 1,12,-1
 374 700 l 1,13,-1
 323 588 l 1,14,-1
 179 588 l 1,15,-1
 179 403 l 1,16,-1
 222 473 l 1,0,-1
245 316 m 2,17,18
 245 334 245 334 232.5 347.5 c 128,-1,19
 220 361 220 361 201 361 c 2,20,-1
 179 361 l 1,21,-1
 179 157 l 2,22,23
 179 139 179 139 191.5 125.5 c 128,-1,24
 204 112 204 112 223 112 c 2,25,-1
 245 112 l 1,26,-1
 245 316 l 2,17,18
EndSplineSet
EndChar
StartChar: seven
Encoding: 55 55 22
Width: 431
Flags: W
LayerCount: 2
Back
Fore
SplineSet
35 588 m 1,0,-1
 73 700 l 1,1,-1
 396 700 l 1,2,-1
 296 404 l 1,3,-1
 361 404 l 1,4,-1
 326 293 l 1,5,-1
 258 293 l 1,6,-1
 158 0 l 1,7,-1
 41 0 l 1,8,-1
 141 293 l 1,9,-1
 63 293 l 1,10,-1
 98 404 l 1,11,-1
 179 404 l 1,12,-1
 241 588 l 1,13,-1
 35 588 l 1,14,-1
 35 588 l 1,0,-1
EndSplineSet
EndChar
StartChar: eight
Encoding: 56 56 23
Width: 435
Flags: W
LayerCount: 2
Back
Fore
SplineSet
255 700 m 2,0,1
 285 700 285 700 311.5 688.5 c 128,-1,2
 338 677 338 677 357.5 657.5 c 128,-1,3
 377 638 377 638 388.5 611.5 c 128,-1,4
 400 585 400 585 400 555 c 0,5,6
 400 517 400 517 381 485 c 128,-1,7
 362 453 362 453 330 433 c 2,8,-1
 285 406 l 1,9,10
 309 391 309 391 329.5 377.5 c 128,-1,11
 350 364 350 364 366 346.5 c 128,-1,12
 382 329 382 329 391 307 c 128,-1,13
 400 285 400 285 400 254 c 2,14,-1
 400 140 l 1,15,-1
 397 137 l 1,16,-1
 272 0 l 1,17,-1
 180 0 l 2,18,19
 131 0 131 0 92.5 28.5 c 128,-1,20
 54 57 54 57 41 105 c 0,21,22
 35 126 35 126 35.5 148.5 c 128,-1,23
 36 171 36 171 36 193 c 0,24,25
 36 231 36 231 54.5 263 c 128,-1,26
 73 295 73 295 105 315 c 2,27,-1
 133 332 l 1,28,29
 125 337 125 337 117.5 342 c 128,-1,30
 110 347 110 347 102 352 c 0,31,32
 70 372 70 372 52.5 404 c 128,-1,33
 35 436 35 436 35 474 c 2,34,-1
 35 560 l 1,35,-1
 163 700 l 1,36,-1
 255 700 l 2,0,1
189 157 m 2,37,38
 189 138 189 138 202 125 c 128,-1,39
 215 112 215 112 234 112 c 2,40,-1
 256 112 l 1,41,-1
 256 221 l 2,42,43
 256 252 256 252 228 271 c 0,44,45
 218 277 218 277 208.5 283.5 c 128,-1,46
 199 290 199 290 189 296 c 1,47,-1
 189 157 l 2,37,38
246 543 m 2,48,49
 246 562 246 562 233 575 c 128,-1,50
 220 588 220 588 201 588 c 2,51,-1
 179 588 l 1,52,-1
 179 506 l 2,53,54
 179 491 179 491 185 480 c 128,-1,55
 191 469 191 469 201 460.5 c 128,-1,56
 211 452 211 452 223 445 c 128,-1,57
 235 438 235 438 246 431 c 1,58,-1
 246 543 l 2,48,49
EndSplineSet
EndChar
StartChar: nine
Encoding: 57 57 24
Width: 425
Flags: W
LayerCount: 2
Back
Fore
SplineSet
203 227 m 1,0,-1
 132 227 l 2,1,2
 112 227 112 227 94.5 234.5 c 128,-1,3
 77 242 77 242 63.5 255 c 128,-1,4
 50 268 50 268 42.5 285.5 c 128,-1,5
 35 303 35 303 35 323 c 2,6,-1
 35 560 l 1,7,-1
 163 700 l 1,8,-1
 294 700 l 2,9,10
 334 700 334 700 362 672 c 128,-1,11
 390 644 390 644 390 604 c 2,12,-1
 390 140 l 1,13,-1
 273 0 l 1,14,-1
 50 0 l 1,15,-1
 101 112 l 1,16,-1
 246 112 l 1,17,-1
 246 297 l 1,18,-1
 203 227 l 1,0,-1
179 384 m 2,19,20
 179 365 179 365 192 352 c 128,-1,21
 205 339 205 339 224 339 c 2,22,-1
 246 339 l 1,23,-1
 246 543 l 2,24,25
 246 562 246 562 233 575 c 128,-1,26
 220 588 220 588 201 588 c 2,27,-1
 179 588 l 1,28,-1
 179 384 l 2,19,20
EndSplineSet
EndChar
StartChar: colon
Encoding: 58 58 13
Width: 269
Flags: W
LayerCount: 2
Back
Fore
SplineSet
234 461 m 1,0,-1
 134 362 l 1,1,-1
 35 461 l 1,2,-1
 134 560 l 1,3,-1
 234 461 l 1,0,-1
234 99 m 1,4,-1
 134 0 l 1,5,-1
 35 99 l 1,6,-1
 134 198 l 1,7,-1
 234 99 l 1,4,-1
EndSplineSet
EndChar
StartChar: semicolon
Encoding: 59 59 14
Width: 273
Flags: W
LayerCount: 2
Back
Fore
SplineSet
238 372 m 1,0,-1
 138 273 l 1,1,-1
 39 372 l 1,2,-1
 138 471 l 1,3,-1
 238 372 l 1,0,-1
201 138 m 2,4,5
 217 122 217 122 217 99 c 0,6,7
 217 77 217 77 201 61 c 0,8,9
 171 29 171 29 140 -1.5 c 128,-1,10
 109 -32 109 -32 78 -63 c 1,11,-1
 35 -20 l 1,12,-1
 98 43 l 1,13,-1
 41 99 l 1,14,-1
 141 198 l 1,15,-1
 201 138 l 2,4,5
EndSplineSet
EndChar
StartChar: less
Encoding: 60 60 136
Width: 462
Flags: W
LayerCount: 2
Back
Fore
SplineSet
92 391 m 1,0,-1
 427 583 l 1,1,-1
 367 453 l 1,2,-1
 166 338 l 1,3,-1
 427 151 l 1,4,-1
 367 21 l 1,5,-1
 32 261 l 1,6,-1
 92 391 l 1,0,-1
EndSplineSet
EndChar
StartChar: equal
Encoding: 61 61 127
Width: 353
Flags: W
LayerCount: 2
Back
Fore
SplineSet
63 146 m 1,0,-1
 95 212 l 1,1,-1
 318 212 l 1,2,-1
 286 146 l 1,3,-1
 63 146 l 1,0,-1
95 336 m 1,4,-1
 318 336 l 1,5,-1
 286 270 l 1,6,-1
 63 270 l 1,7,-1
 95 336 l 1,4,-1
EndSplineSet
EndChar
StartChar: greater
Encoding: 62 62 137
Width: 462
Flags: W
LayerCount: 2
Back
Fore
SplineSet
367 213 m 1,0,-1
 32 21 l 1,1,-1
 92 151 l 1,2,-1
 293 266 l 1,3,-1
 32 453 l 1,4,-1
 92 583 l 1,5,-1
 427 343 l 1,6,-1
 367 213 l 1,0,-1
EndSplineSet
EndChar
StartChar: question
Encoding: 63 63 15
Width: 317
Flags: W
LayerCount: 2
Back
Fore
SplineSet
282 99 m 1,0,-1
 182 0 l 1,1,-1
 83 99 l 1,2,-1
 182 198 l 1,3,-1
 282 99 l 1,0,-1
79 700 m 1,4,-1
 170 700 l 2,5,6
 190 700 190 700 207.5 692 c 128,-1,7
 225 684 225 684 238.5 670.5 c 128,-1,8
 252 657 252 657 260 639.5 c 128,-1,9
 268 622 268 622 268 602 c 2,10,-1
 268 308 l 1,11,-1
 130 179 l 1,12,-1
 130 588 l 1,13,-1
 35 588 l 1,14,-1
 79 700 l 1,4,-1
EndSplineSet
EndChar
StartChar: at
Encoding: 64 64 206
Width: 582
Flags: W
LayerCount: 2
Back
Fore
SplineSet
234 -128 m 1,0,-1
 16 -11 l 1,1,-1
 16 312 l 1,2,-1
 313 508 l 1,3,-1
 540 419 l 1,4,-1
 540 77 l 1,5,-1
 390 -14 l 1,6,-1
 340 25 l 1,7,-1
 281 -16 l 1,8,-1
 149 43 l 1,9,-1
 148 311 l 1,10,-1
 280 401 l 1,11,-1
 411 343 l 1,12,-1
 413 84 l 1,13,-1
 461 53 l 1,14,-1
 462 356 l 1,15,-1
 278 445 l 1,16,-1
 101 323 l 1,17,-1
 101 35 l 1,18,-1
 315 -66 l 1,19,-1
 234 -128 l 1,0,-1
310 291 m 1,20,-1
 248 319 l 1,21,-1
 250 95 l 1,22,-1
 313 68 l 1,23,-1
 310 291 l 1,20,-1
EndSplineSet
EndChar
StartChar: A
Encoding: 65 65 2
Width: 464
Flags: W
LayerCount: 2
Back
Fore
SplineSet
429 623 m 1,0,-1
 428 622 l 1,1,-1
 428 0 l 1,2,-1
 274 0 l 1,3,-1
 274 226 l 1,4,-1
 189 226 l 1,5,-1
 189 0 l 1,6,-1
 35 0 l 1,7,-1
 35 589 l 1,8,-1
 228 713 l 1,9,-1
 429 623 l 1,0,-1
274 348 m 1,10,-1
 274 542 l 1,11,-1
 189 579 l 1,12,-1
 189 348 l 1,13,-1
 274 348 l 1,10,-1
EndSplineSet
EndChar
StartChar: B
Encoding: 66 66 25
Width: 460
Flags: W
LayerCount: 2
Back
Fore
SplineSet
35 63 m 1,0,-1
 36 64 l 1,1,-1
 36 700 l 1,2,-1
 190 700 l 1,3,-1
 190 639 l 1,4,-1
 298 716 l 1,5,-1
 425 658 l 1,6,-1
 425 503 l 1,7,-1
 340 447 l 1,8,-1
 425 408 l 1,9,-1
 425 107 l 1,10,-1
 229 -25 l 1,11,-1
 35 63 l 1,0,-1
271 108 m 1,12,-1
 271 315 l 1,13,-1
 190 350 l 1,14,-1
 190 143 l 1,15,-1
 271 108 l 1,12,-1
271 446 m 1,16,-1
 271 564 l 1,17,-1
 190 600 l 1,18,-1
 190 389 l 1,19,-1
 271 446 l 1,16,-1
EndSplineSet
EndChar
StartChar: C
Encoding: 67 67 26
Width: 390
Flags: W
LayerCount: 2
Back
Fore
SplineSet
229 -25 m 1,0,-1
 35 63 l 1,1,-1
 36 64 l 1,2,-1
 36 553 l 1,3,-1
 168 700 l 1,4,-1
 355 700 l 1,5,-1
 306 560 l 1,6,-1
 190 560 l 1,7,-1
 190 143 l 1,8,-1
 328 83 l 1,9,-1
 229 -25 l 1,10,-1
 229 -25 l 1,0,-1
EndSplineSet
EndChar
StartChar: D
Encoding: 68 68 27
Width: 473
Flags: W
LayerCount: 2
Back
Fore
SplineSet
41 97 m 1,0,-1
 41 491 l 1,1,-1
 114 558 l 1,2,-1
 -37 558 l 1,3,-1
 37 696 l 1,4,-1
 272 696 l 2,5,6
 306 696 306 696 336.5 683 c 128,-1,7
 367 670 367 670 389.5 647.5 c 128,-1,8
 412 625 412 625 425 594.5 c 128,-1,9
 438 564 438 564 438 530 c 2,10,-1
 438 140 l 1,11,-1
 297 0 l 1,12,-1
 -27 0 l 1,13,-1
 41 97 l 1,0,-1
283 508 m 2,14,15
 283 528 283 528 269 543 c 128,-1,16
 255 558 255 558 234 558 c 2,17,-1
 195 558 l 1,18,-1
 195 212 l 1,19,-1
 116 140 l 1,20,-1
 283 140 l 1,21,-1
 283 508 l 2,14,15
EndSplineSet
EndChar
StartChar: E
Encoding: 69 69 28
Width: 364
Flags: W
LayerCount: 2
Back
Fore
SplineSet
190 433 m 1,0,-1
 290 433 l 1,1,-1
 241 293 l 1,2,-1
 190 293 l 1,3,-1
 190 143 l 1,4,-1
 359 85 l 1,5,-1
 260 -23 l 1,6,-1
 35 63 l 1,7,-1
 36 64 l 1,8,-1
 36 553 l 1,9,-1
 168 700 l 1,10,-1
 367 700 l 1,11,-1
 318 560 l 1,12,-1
 190 560 l 1,13,-1
 190 433 l 1,14,-1
 190 433 l 1,0,-1
EndSplineSet
EndChar
StartChar: F
Encoding: 70 70 29
Width: 376
Flags: W
LayerCount: 2
Back
Fore
SplineSet
35 560 m 1,0,-1
 102 700 l 1,1,-1
 424 700 l 1,2,-1
 357 560 l 1,3,-1
 298 560 l 1,4,-1
 298 391 l 1,5,-1
 394 391 l 1,6,-1
 332 262 l 1,7,-1
 298 262 l 1,8,-1
 298 -79 l 1,9,-1
 144 -180 l 1,10,-1
 144 262 l 1,11,-1
 35 262 l 1,12,-1
 96 391 l 1,13,-1
 144 391 l 1,14,-1
 144 503 l 1,15,-1
 232 560 l 1,16,-1
 35 560 l 1,17,-1
 35 560 l 1,0,-1
EndSplineSet
EndChar
StartChar: G
Encoding: 71 71 30
Width: 473
Flags: W
LayerCount: 2
Back
Fore
SplineSet
229 -25 m 1,0,-1
 35 63 l 1,1,-1
 36 64 l 1,2,-1
 36 553 l 1,3,-1
 168 700 l 1,4,-1
 413 700 l 1,5,-1
 364 560 l 1,6,-1
 190 560 l 1,7,-1
 190 143 l 1,8,-1
 284 105 l 1,9,-1
 284 346 l 1,10,-1
 200 346 l 1,11,-1
 249 486 l 1,12,-1
 438 486 l 1,13,-1
 438 110 l 1,14,-1
 229 -25 l 1,15,-1
 229 -25 l 1,0,-1
EndSplineSet
EndChar
StartChar: H
Encoding: 72 72 31
Width: 466
Flags: W
LayerCount: 2
Back
Fore
SplineSet
295 528 m 1,0,-1
 431 453 l 1,1,-1
 430 452 l 1,2,-1
 430 -85 l 1,3,-1
 276 -185 l 1,4,-1
 276 373 l 1,5,-1
 189 415 l 1,6,-1
 189 0 l 1,7,-1
 35 0 l 1,8,-1
 35 553 l 1,9,-1
 167 700 l 1,10,-1
 412 700 l 1,11,-1
 363 560 l 1,12,-1
 189 560 l 1,13,-1
 189 461 l 1,14,-1
 295 528 l 1,15,-1
 295 528 l 1,0,-1
EndSplineSet
EndChar
StartChar: I
Encoding: 73 73 32
Width: 387
Flags: W
LayerCount: 2
Back
Fore
SplineSet
35 0 m 1,0,-1
 93 140 l 1,1,-1
 178 140 l 1,2,-1
 178 484 l 1,3,-1
 236 560 l 1,4,-1
 35 560 l 1,5,-1
 111 700 l 1,6,-1
 377 700 l 1,7,-1
 332 617 l 1,8,-1
 332 151 l 1,9,-1
 216 0 l 1,10,-1
 35 0 l 1,11,-1
 35 0 l 1,0,-1
EndSplineSet
EndChar
StartChar: J
Encoding: 74 74 3
Width: 361
Flags: W
LayerCount: 2
Back
Fore
SplineSet
35 560 m 1,0,-1
 111 700 l 1,1,-1
 347 700 l 1,2,-1
 302 617 l 1,3,-1
 302 -88 l 1,4,-1
 148 -184 l 1,5,-1
 148 484 l 1,6,-1
 206 560 l 1,7,-1
 35 560 l 1,8,-1
 35 560 l 1,0,-1
EndSplineSet
EndChar
StartChar: K
Encoding: 75 75 33
Width: 458
Flags: W
LayerCount: 2
Back
Fore
SplineSet
35 0 m 1,0,-1
 35 553 l 1,1,-1
 166 700 l 1,2,-1
 412 700 l 1,3,-1
 363 560 l 1,4,-1
 189 560 l 1,5,-1
 189 464 l 1,6,-1
 297 540 l 1,7,-1
 423 482 l 1,8,-1
 423 377 l 1,9,-1
 338 320 l 1,10,-1
 423 282 l 1,11,-1
 421 0 l 1,12,-1
 267 0 l 1,13,-1
 269 188 l 1,14,-1
 189 224 l 1,15,-1
 189 0 l 1,16,-1
 35 0 l 1,0,-1
189 263 m 1,17,-1
 269 320 l 1,18,-1
 269 389 l 1,19,-1
 189 424 l 1,20,-1
 189 263 l 1,17,-1
EndSplineSet
EndChar
StartChar: L
Encoding: 76 76 34
Width: 377
Flags: W
LayerCount: 2
Back
Fore
SplineSet
377 700 m 1,0,-1
 319 560 l 1,1,-1
 235 560 l 1,2,-1
 235 216 l 1,3,-1
 176 140 l 1,4,-1
 377 140 l 1,5,-1
 302 0 l 1,6,-1
 35 0 l 1,7,-1
 80 83 l 1,8,-1
 80 549 l 1,9,-1
 196 700 l 1,10,-1
 377 700 l 1,11,-1
 377 700 l 1,0,-1
EndSplineSet
EndChar
StartChar: M
Encoding: 77 77 35
Width: 720
Flags: W
LayerCount: 2
Back
Fore
SplineSet
546 718 m 1,0,-1
 685 641 l 1,1,-1
 684 640 l 1,2,-1
 684 0 l 1,3,-1
 530 0 l 1,4,-1
 530 560 l 1,5,-1
 436 613 l 1,6,-1
 436 0 l 1,7,-1
 282 0 l 1,8,-1
 282 560 l 1,9,-1
 189 613 l 1,10,-1
 189 0 l 1,11,-1
 35 0 l 1,12,-1
 35 700 l 1,13,-1
 189 700 l 1,14,-1
 189 641 l 1,15,-1
 299 718 l 1,16,-1
 437 641 l 1,17,-1
 546 718 l 1,18,-1
 546 718 l 1,0,-1
EndSplineSet
EndChar
StartChar: N
Encoding: 78 78 36
Width: 472
Flags: W
LayerCount: 2
Back
Fore
SplineSet
299 718 m 1,0,-1
 437 641 l 1,1,-1
 436 640 l 1,2,-1
 436 0 l 1,3,-1
 282 0 l 1,4,-1
 282 560 l 1,5,-1
 189 613 l 1,6,-1
 189 0 l 1,7,-1
 35 0 l 1,8,-1
 35 700 l 1,9,-1
 189 700 l 1,10,-1
 189 641 l 1,11,-1
 299 718 l 1,12,-1
 299 718 l 1,0,-1
EndSplineSet
EndChar
StartChar: O
Encoding: 79 79 37
Width: 478
Flags: W
LayerCount: 2
Back
Fore
SplineSet
443 634 m 1,0,-1
 442 114 l 1,1,-1
 238 -26 l 1,2,-1
 35 65 l 1,3,-1
 36 585 l 1,4,-1
 240 725 l 1,5,-1
 443 634 l 1,0,-1
288 554 m 1,6,-1
 190 597 l 1,7,-1
 190 145 l 1,8,-1
 288 102 l 1,9,-1
 288 554 l 1,6,-1
EndSplineSet
EndChar
StartChar: P
Encoding: 80 80 38
Width: 530
Flags: W
LayerCount: 2
Back
Fore
SplineSet
495 641 m 1,0,-1
 494 640 l 1,1,-1
 494 166 l 1,2,-1
 340 0 l 1,3,-1
 247 0 l 1,4,-1
 247 -82 l 1,5,-1
 93 -171 l 1,6,-1
 93 0 l 1,7,-1
 35 0 l 1,8,-1
 93 111 l 1,9,-1
 93 700 l 1,10,-1
 247 700 l 1,11,-1
 247 641 l 1,12,-1
 357 718 l 1,13,-1
 495 641 l 1,0,-1
340 560 m 1,14,-1
 247 613 l 1,15,-1
 247 140 l 1,16,-1
 340 140 l 1,17,-1
 340 560 l 1,14,-1
EndSplineSet
EndChar
StartChar: Q
Encoding: 81 81 39
Width: 477
Flags: W
LayerCount: 2
Back
Fore
SplineSet
442 634 m 1,0,-1
 441 114 l 1,1,-1
 356 56 l 1,2,-1
 441 56 l 1,3,-1
 441 -99 l 1,4,-1
 287 -99 l 1,5,-1
 287 8 l 1,6,-1
 237 -26 l 1,7,-1
 35 65 l 1,8,-1
 36 585 l 1,9,-1
 239 725 l 1,10,-1
 442 634 l 1,0,-1
287 554 m 1,11,-1
 190 597 l 1,12,-1
 190 145 l 1,13,-1
 287 102 l 1,14,-1
 287 554 l 1,11,-1
EndSplineSet
EndChar
StartChar: R
Encoding: 82 82 40
Width: 472
Flags: W
LayerCount: 2
Back
Fore
SplineSet
35 0 m 1,0,-1
 35 700 l 1,1,-1
 189 700 l 1,2,-1
 189 636 l 1,3,-1
 297 712 l 1,4,-1
 424 654 l 1,5,-1
 424 488 l 1,6,-1
 339 431 l 1,7,-1
 424 393 l 1,8,-1
 421 0 l 1,9,-1
 267 0 l 1,10,-1
 270 299 l 1,11,-1
 189 334 l 1,12,-1
 189 0 l 1,13,-1
 35 0 l 1,0,-1
189 374 m 1,14,-1
 270 431 l 1,15,-1
 270 561 l 1,16,-1
 189 596 l 1,17,-1
 189 374 l 1,14,-1
EndSplineSet
EndChar
StartChar: S
Encoding: 83 83 4
Width: 461
Flags: W
LayerCount: 2
Back
Fore
SplineSet
166 212 m 1,0,-1
 35 298 l 1,1,-1
 36 299 l 1,2,-1
 36 553 l 1,3,-1
 168 700 l 1,4,-1
 417 700 l 1,5,-1
 349 560 l 1,6,-1
 190 560 l 1,7,-1
 190 401 l 1,8,-1
 223 378 l 1,9,-1
 292 488 l 1,10,-1
 423 402 l 1,11,-1
 422 401 l 1,12,-1
 422 147 l 1,13,-1
 291 0 l 1,14,-1
 42 0 l 1,15,-1
 109 140 l 1,16,-1
 268 140 l 1,17,-1
 268 299 l 1,18,-1
 236 322 l 1,19,-1
 166 212 l 1,20,-1
 166 212 l 1,0,-1
EndSplineSet
EndChar
StartChar: T
Encoding: 84 84 41
Width: 384
Flags: W
LayerCount: 2
Back
Fore
SplineSet
275 -12 m 1,0,-1
 110 63 l 1,1,-1
 111 64 l 1,2,-1
 111 490 l 1,3,-1
 173 560 l 1,4,-1
 4 560 l 1,5,-1
 53 700 l 1,6,-1
 429 700 l 1,7,-1
 380 560 l 1,8,-1
 265 560 l 1,9,-1
 265 143 l 1,10,-1
 374 96 l 1,11,-1
 275 -12 l 1,12,-1
 275 -12 l 1,0,-1
EndSplineSet
EndChar
StartChar: U
Encoding: 85 85 42
Width: 494
Flags: W
LayerCount: 2
Back
Fore
SplineSet
174 -18 m 1,0,-1
 35 59 l 1,1,-1
 36 60 l 1,2,-1
 36 700 l 1,3,-1
 190 700 l 1,4,-1
 190 140 l 1,5,-1
 283 87 l 1,6,-1
 283 700 l 1,7,-1
 437 700 l 1,8,-1
 437 118 l 1,9,-1
 487 85 l 1,10,-1
 386 -17 l 1,11,-1
 283 59 l 1,12,-1
 174 -18 l 1,13,-1
 174 -18 l 1,0,-1
EndSplineSet
EndChar
StartChar: V
Encoding: 86 86 43
Width: 478
Flags: W
LayerCount: 2
Back
Fore
SplineSet
238 -26 m 1,0,-1
 35 65 l 1,1,-1
 36 700 l 1,2,-1
 190 700 l 1,3,-1
 190 608 l 1,4,-1
 293 716 l 1,5,-1
 443 634 l 1,6,7
 441 503 441 503 441.5 374 c 128,-1,8
 442 245 442 245 442 114 c 1,9,-1
 238 -26 l 1,0,-1
190 145 m 1,10,-1
 288 102 l 1,11,-1
 288 554 l 1,12,-1
 233 597 l 1,13,-1
 190 556 l 1,14,-1
 190 145 l 1,10,-1
EndSplineSet
EndChar
StartChar: W
Encoding: 87 87 44
Width: 733
Flags: W
LayerCount: 2
Back
Fore
SplineSet
698 416 m 2,0,1
 698 340 698 340 697.5 265 c 128,-1,2
 697 190 697 190 697 114 c 1,3,-1
 493 -26 l 1,4,-1
 291 64 l 1,5,-1
 174 -18 l 1,6,-1
 35 59 l 1,7,-1
 36 60 l 1,8,-1
 36 700 l 1,9,-1
 190 700 l 1,10,-1
 190 146 l 1,11,-1
 291 91 l 1,12,-1
 291 700 l 1,13,-1
 446 700 l 1,14,-1
 446 608 l 1,15,-1
 549 716 l 1,16,-1
 698 634 l 1,17,-1
 698 416 l 2,0,1
446 145 m 1,18,-1
 543 102 l 1,19,-1
 543 554 l 1,20,-1
 488 597 l 1,21,-1
 446 556 l 1,22,-1
 446 145 l 1,18,-1
EndSplineSet
EndChar
StartChar: X
Encoding: 88 88 45
Width: 525
Flags: W
LayerCount: 2
Back
Fore
SplineSet
379 -25 m 1,0,-1
 237 58 l 1,1,-1
 169 -25 l 1,2,-1
 35 54 l 1,3,-1
 119 166 l 1,4,-1
 185 129 l 1,5,-1
 185 262 l 1,6,-1
 83 262 l 1,7,-1
 145 391 l 1,8,-1
 185 391 l 1,9,-1
 185 531 l 1,10,-1
 48 606 l 1,11,-1
 146 714 l 1,12,-1
 288 631 l 1,13,-1
 356 714 l 1,14,-1
 490 635 l 1,15,-1
 406 523 l 1,16,-1
 339 560 l 1,17,-1
 339 391 l 1,18,-1
 442 391 l 1,19,-1
 380 262 l 1,20,-1
 339 262 l 1,21,-1
 339 158 l 1,22,-1
 477 83 l 1,23,-1
 379 -25 l 1,24,-1
 379 -25 l 1,0,-1
EndSplineSet
EndChar
StartChar: Y
Encoding: 89 89 46
Width: 472
Flags: W
LayerCount: 2
Back
Fore
SplineSet
437 -22 m 1,0,-1
 305 -169 l 1,1,-1
 62 -169 l 1,2,-1
 133 -29 l 1,3,-1
 283 -29 l 1,4,-1
 283 59 l 1,5,-1
 174 -18 l 1,6,-1
 35 59 l 1,7,-1
 36 60 l 1,8,-1
 36 700 l 1,9,-1
 190 700 l 1,10,-1
 190 140 l 1,11,-1
 283 87 l 1,12,-1
 283 700 l 1,13,-1
 437 700 l 1,14,-1
 437 -22 l 1,15,-1
 437 -22 l 1,0,-1
EndSplineSet
EndChar
StartChar: Z
Encoding: 90 90 47
Width: 379
Flags: W
LayerCount: 2
Back
Fore
SplineSet
103 700 m 1,0,-1
 223 700 l 2,1,2
 248 700 248 700 270 690.5 c 128,-1,3
 292 681 292 681 308.5 664.5 c 128,-1,4
 325 648 325 648 334.5 626 c 128,-1,5
 344 604 344 604 344 579 c 2,6,-1
 344 425 l 1,7,-1
 250 363 l 1,8,-1
 344 330 l 1,9,-1
 344 -22 l 1,10,-1
 212 -169 l 1,11,-1
 35 -169 l 1,12,-1
 89 -29 l 1,13,-1
 190 -29 l 1,14,-1
 190 245 l 1,15,-1
 60 293 l 1,16,-1
 190 379 l 1,17,-1
 190 521 l 2,18,19
 190 538 190 538 178 549 c 128,-1,20
 166 560 166 560 150 560 c 2,21,-1
 41 560 l 1,22,-1
 103 700 l 1,0,-1
EndSplineSet
EndChar
StartChar: bracketleft
Encoding: 91 91 142
Width: 190
Flags: W
LayerCount: 2
Back
Fore
SplineSet
91 700 m 1,0,-1
 296 700 l 1,1,-1
 243 596 l 1,2,-1
 155 596 l 1,3,-1
 155 -61 l 1,4,-1
 296 -61 l 1,5,-1
 243 -165 l 1,6,-1
 35 -165 l 1,7,-1
 35 592 l 1,8,-1
 39 596 l 1,9,-1
 38 596 l 1,10,-1
 91 700 l 1,0,-1
EndSplineSet
EndChar
StartChar: backslash
Encoding: 92 92 131
Width: 433
Flags: W
LayerCount: 2
Back
Fore
SplineSet
120 700 m 1,0,-1
 432 -165 l 1,1,-1
 312 -165 l 1,2,-1
 0 700 l 1,3,-1
 120 700 l 1,4,-1
 120 700 l 1,0,-1
EndSplineSet
EndChar
StartChar: bracketright
Encoding: 93 93 143
Width: 190
Flags: W
LayerCount: 2
Back
Fore
SplineSet
98 -165 m 1,0,-1
 -107 -165 l 1,1,-1
 -54 -61 l 1,2,-1
 34 -61 l 1,3,-1
 34 596 l 1,4,-1
 -107 596 l 1,5,-1
 -54 700 l 1,6,-1
 154 700 l 1,7,-1
 154 -57 l 1,8,-1
 150 -61 l 1,9,-1
 151 -61 l 1,10,-1
 98 -165 l 1,0,-1
EndSplineSet
EndChar
StartChar: asciicircum
Encoding: 94 94 144
Width: 626
Flags: W
LayerCount: 2
Back
Fore
SplineSet
347 710 m 1,0,-1
 587 375 l 1,1,-1
 457 315 l 1,2,-1
 270 576 l 1,3,-1
 155 375 l 1,4,-1
 25 315 l 1,5,-1
 217 650 l 1,6,-1
 347 710 l 1,0,-1
EndSplineSet
EndChar
StartChar: underscore
Encoding: 95 95 207
Width: 353
Flags: W
LayerCount: 2
Back
Fore
SplineSet
-25 -166 m 1,0,-1
 3 -101 l 1,1,-1
 390 -101 l 1,2,-1
 362 -166 l 1,3,-1
 -25 -166 l 1,4,-1
 -25 -166 l 1,0,-1
EndSplineSet
EndChar
StartChar: grave
Encoding: 96 96 166
Width: 434
Flags: W
LayerCount: 2
Back
Fore
SplineSet
285 753 m 1,0,-1
 377 582 l 1,1,-1
 351 556 l 1,2,-1
 196 663 l 1,3,-1
 285 753 l 1,0,-1
EndSplineSet
EndChar
StartChar: a
Encoding: 97 97 5
Width: 452
Flags: W
LayerCount: 2
Back
Fore
SplineSet
398 480 m 1,0,-1
 400 122 l 1,1,-1
 461 76 l 1,2,-1
 366 -18 l 1,3,-1
 299 41 l 1,4,-1
 218 -15 l 1,5,-1
 37 66 l 1,6,-1
 35 436 l 1,7,-1
 217 560 l 1,8,-1
 398 480 l 1,0,-1
259 408 m 1,9,-1
 173 446 l 1,10,-1
 175 138 l 1,11,-1
 262 100 l 1,12,-1
 259 408 l 1,9,-1
EndSplineSet
EndChar
StartChar: b
Encoding: 98 98 51
Width: 434
Flags: W
LayerCount: 2
Back
Fore
SplineSet
398 480 m 1,0,-1
 399 106 l 1,1,-1
 218 -18 l 1,2,-1
 37 63 l 1,3,-1
 35 700 l 1,4,-1
 173 700 l 1,5,-1
 173 476 l 1,6,-1
 268 560 l 1,7,-1
 398 480 l 1,0,-1
260 408 m 1,8,-1
 173 446 l 1,9,-1
 175 134 l 1,10,-1
 262 96 l 1,11,-1
 260 408 l 1,8,-1
EndSplineSet
EndChar
StartChar: c
Encoding: 99 99 52
Width: 356
Flags: W
LayerCount: 2
Back
Fore
SplineSet
38 451 m 1,0,-1
 180 560 l 1,1,-1
 321 479 l 1,2,-1
 245 365 l 1,3,-1
 175 414 l 1,4,-1
 173 147 l 1,5,-1
 303 86 l 1,6,-1
 210 -18 l 1,7,-1
 35 66 l 1,8,-1
 38 451 l 1,9,-1
 38 451 l 1,0,-1
EndSplineSet
EndChar
StartChar: d
Encoding: 100 100 53
Width: 437
Flags: W
LayerCount: 2
Back
Fore
SplineSet
399 106 m 1,0,-1
 217 -18 l 1,1,-1
 36 63 l 1,2,-1
 39 453 l 1,3,-1
 140 523 l 1,4,-1
 4 611 l 1,5,-1
 102 714 l 1,6,-1
 402 516 l 1,7,-1
 399 106 l 1,0,-1
176 500 m 1,8,-1
 174 134 l 1,9,-1
 261 96 l 1,10,-1
 263 443 l 1,11,-1
 176 500 l 1,8,-1
EndSplineSet
EndChar
StartChar: e
Encoding: 101 101 54
Width: 412
Flags: W
LayerCount: 2
Back
Fore
SplineSet
199 560 m 1,0,-1
 373 489 l 1,1,-1
 371 487 l 1,2,-1
 377 489 l 1,3,-1
 377 226 l 1,4,-1
 192 139 l 1,5,-1
 355 75 l 1,6,-1
 260 -18 l 1,7,-1
 35 66 l 1,8,-1
 37 451 l 1,9,-1
 199 560 l 1,0,-1
172 416 m 1,10,-1
 172 177 l 1,11,-1
 242 208 l 1,12,-1
 242 389 l 1,13,-1
 172 416 l 1,10,-1
EndSplineSet
EndChar
StartChar: f
Encoding: 102 102 55
Width: 236
Flags: W
LayerCount: 2
Back
Fore
SplineSet
266 528 m 1,0,-1
 229 421 l 1,1,-1
 184 421 l 1,2,-1
 184 -92 l 1,3,-1
 48 -169 l 1,4,-1
 48 421 l 1,5,-1
 8 421 l 1,6,-1
 48 495 l 1,7,-1
 48 560 l 1,8,-1
 150 700 l 1,9,-1
 303 700 l 1,10,-1
 266 601 l 1,11,-1
 184 601 l 1,12,-1
 184 528 l 1,13,-1
 266 528 l 1,14,-1
 266 528 l 1,0,-1
EndSplineSet
EndChar
StartChar: g
Encoding: 103 103 56
Width: 434
Flags: W
LayerCount: 2
Back
Fore
SplineSet
261 -67 m 1,0,-1
 261 66 l 1,1,-1
 167 -18 l 1,2,-1
 36 63 l 1,3,-1
 35 436 l 1,4,-1
 217 560 l 1,5,-1
 398 480 l 1,6,-1
 399 -67 l 1,7,-1
 317 -169 l 1,8,-1
 39 -169 l 1,9,-1
 94 -67 l 1,10,-1
 261 -67 l 1,0,-1
174 134 m 1,11,-1
 261 96 l 1,12,-1
 259 408 l 1,13,-1
 172 446 l 1,14,-1
 174 134 l 1,11,-1
EndSplineSet
EndChar
StartChar: h
Encoding: 104 104 57
Width: 449
Flags: W
LayerCount: 2
Back
Fore
SplineSet
283 560 m 1,0,-1
 414 488 l 1,1,-1
 413 487 l 1,2,-1
 413 0 l 1,3,-1
 268 0 l 1,4,-1
 268 412 l 1,5,-1
 180 462 l 1,6,-1
 180 0 l 1,7,-1
 35 0 l 1,8,-1
 35 700 l 1,9,-1
 180 700 l 1,10,-1
 180 488 l 1,11,-1
 283 560 l 1,12,-1
 283 560 l 1,0,-1
EndSplineSet
EndChar
StartChar: i
Encoding: 105 105 58
Width: 259
Flags: W
LayerCount: 2
Back
Fore
SplineSet
183 -18 m 1,0,-1
 52 55 l 1,1,-1
 53 56 l 1,2,-1
 53 528 l 1,3,-1
 106 528 l 1,4,-1
 30 604 l 1,5,-1
 126 700 l 1,6,-1
 221 604 l 1,7,-1
 145 528 l 1,8,-1
 198 528 l 1,9,-1
 198 131 l 1,10,-1
 282 82 l 1,11,-1
 183 -18 l 1,12,-1
 183 -18 l 1,0,-1
EndSplineSet
EndChar
StartChar: j
Encoding: 106 106 59
Width: 262
Flags: W
LayerCount: 2
Back
Fore
SplineSet
58 -169 m 1,0,-1
 59 -168 l 1,1,-1
 59 528 l 1,2,-1
 112 528 l 1,3,-1
 35 604 l 1,4,-1
 131 700 l 1,5,-1
 227 604 l 1,6,-1
 150 528 l 1,7,-1
 204 528 l 1,8,-1
 204 -93 l 1,9,-1
 58 -169 l 1,10,-1
 58 -169 l 1,0,-1
EndSplineSet
EndChar
StartChar: k
Encoding: 107 107 60
Width: 449
Flags: W
LayerCount: 2
Back
Fore
SplineSet
414 280 m 1,0,-1
 413 279 l 1,1,-1
 413 0 l 1,2,-1
 268 0 l 1,3,-1
 268 205 l 1,4,-1
 180 255 l 1,5,-1
 180 0 l 1,6,-1
 35 0 l 1,7,-1
 35 700 l 1,8,-1
 180 700 l 1,9,-1
 180 488 l 1,10,-1
 284 560 l 1,11,-1
 414 488 l 1,12,-1
 413 487 l 1,13,-1
 413 400 l 1,14,-1
 310 338 l 1,15,-1
 414 280 l 1,0,-1
268 342 m 1,16,-1
 268 412 l 1,17,-1
 180 462 l 1,18,-1
 180 281 l 1,19,-1
 268 342 l 1,16,-1
EndSplineSet
EndChar
StartChar: l
Encoding: 108 108 61
Width: 234
Flags: W
LayerCount: 2
Back
Fore
SplineSet
166 -18 m 1,0,-1
 35 55 l 1,1,-1
 36 56 l 1,2,-1
 36 700 l 1,3,-1
 181 700 l 1,4,-1
 181 131 l 1,5,-1
 265 82 l 1,6,-1
 166 -18 l 1,7,-1
 166 -18 l 1,0,-1
EndSplineSet
EndChar
StartChar: m
Encoding: 109 109 6
Width: 682
Flags: W
LayerCount: 2
Back
Fore
SplineSet
516 545 m 1,0,-1
 647 472 l 1,1,-1
 646 471 l 1,2,-1
 646 0 l 1,3,-1
 501 0 l 1,4,-1
 501 396 l 1,5,-1
 413 446 l 1,6,-1
 413 0 l 1,7,-1
 268 0 l 1,8,-1
 268 396 l 1,9,-1
 180 446 l 1,10,-1
 180 0 l 1,11,-1
 35 0 l 1,12,-1
 35 528 l 1,13,-1
 180 528 l 1,14,-1
 180 472 l 1,15,-1
 283 545 l 1,16,-1
 413 472 l 1,17,-1
 516 545 l 1,18,-1
 516 545 l 1,0,-1
EndSplineSet
EndChar
StartChar: n
Encoding: 110 110 62
Width: 449
Flags: W
LayerCount: 2
Back
Fore
SplineSet
413 0 m 1,0,-1
 268 0 l 1,1,-1
 268 396 l 1,2,-1
 180 446 l 1,3,-1
 180 0 l 1,4,-1
 35 0 l 1,5,-1
 35 528 l 1,6,-1
 180 528 l 1,7,-1
 180 472 l 1,8,-1
 284 545 l 1,9,-1
 414 473 l 1,10,-1
 413 0 l 1,11,-1
 413 0 l 1,0,-1
EndSplineSet
EndChar
StartChar: o
Encoding: 111 111 63
Width: 433
Flags: W
LayerCount: 2
Back
Fore
SplineSet
216 -29 m 1,0,-1
 35 51 l 1,1,-1
 35 436 l 1,2,-1
 217 560 l 1,3,-1
 398 480 l 1,4,-1
 398 95 l 1,5,-1
 216 -29 l 1,0,-1
260 85 m 1,6,-1
 260 408 l 1,7,-1
 173 446 l 1,8,-1
 173 123 l 1,9,-1
 260 85 l 1,6,-1
EndSplineSet
EndChar
StartChar: p
Encoding: 112 112 64
Width: 465
Flags: W
LayerCount: 2
Back
Fore
SplineSet
51 -168 m 1,0,-1
 51 0 l 1,1,-1
 3 0 l 1,2,-1
 51 88 l 1,3,-1
 51 528 l 1,4,-1
 196 528 l 1,5,-1
 196 472 l 1,6,-1
 299 545 l 1,7,-1
 430 472 l 1,8,-1
 429 471 l 1,9,-1
 429 140 l 1,10,-1
 284 0 l 1,11,-1
 196 0 l 1,12,-1
 196 -93 l 1,13,-1
 50 -169 l 1,14,-1
 51 -168 l 1,0,-1
284 396 m 1,15,-1
 196 446 l 1,16,-1
 196 123 l 1,17,-1
 284 123 l 1,18,-1
 284 396 l 1,15,-1
EndSplineSet
EndChar
StartChar: q
Encoding: 113 113 65
Width: 435
Flags: W
LayerCount: 2
Back
Fore
SplineSet
37 63 m 1,0,-1
 35 436 l 1,1,-1
 217 560 l 1,2,-1
 398 480 l 1,3,-1
 400 -67 l 1,4,-1
 262 -158 l 1,5,-1
 262 66 l 1,6,-1
 167 -18 l 1,7,-1
 37 63 l 1,0,-1
175 134 m 1,8,-1
 262 96 l 1,9,-1
 260 408 l 1,10,-1
 173 446 l 1,11,-1
 175 134 l 1,8,-1
EndSplineSet
EndChar
StartChar: r
Encoding: 114 114 66
Width: 327
Flags: W
LayerCount: 2
Back
Fore
SplineSet
174 528 m 1,0,-1
 174 456 l 1,1,-1
 246 560 l 1,2,-1
 329 438 l 1,3,-1
 246 316 l 1,4,-1
 174 420 l 1,5,-1
 172 147 l 1,6,-1
 303 86 l 1,7,-1
 210 -18 l 1,8,-1
 35 66 l 1,9,-1
 37 528 l 1,10,-1
 174 528 l 1,11,-1
 174 528 l 1,0,-1
EndSplineSet
EndChar
StartChar: s
Encoding: 115 115 67
Width: 431
Flags: W
LayerCount: 2
Back
Fore
SplineSet
39 411 m 1,0,-1
 141 528 l 1,1,-1
 396 528 l 1,2,-1
 322 411 l 1,3,-1
 174 408 l 1,4,-1
 174 293 l 1,5,-1
 206 276 l 1,6,-1
 272 388 l 1,7,-1
 393 305 l 1,8,-1
 393 117 l 1,9,-1
 291 0 l 1,10,-1
 35 0 l 1,11,-1
 109 117 l 1,12,-1
 258 119 l 1,13,-1
 257 235 l 1,14,-1
 225 252 l 1,15,-1
 159 140 l 1,16,-1
 39 222 l 1,17,-1
 39 411 l 1,18,-1
 39 411 l 1,0,-1
EndSplineSet
EndChar
StartChar: t
Encoding: 116 116 68
Width: 251
Flags: W
LayerCount: 2
Back
Fore
SplineSet
148 -18 m 1,0,-1
 38 55 l 1,1,-1
 39 56 l 1,2,-1
 39 415 l 1,3,-1
 5 415 l 1,4,-1
 39 473 l 1,5,-1
 39 598 l 1,6,-1
 184 700 l 1,7,-1
 184 528 l 1,8,-1
 260 528 l 1,9,-1
 221 415 l 1,10,-1
 184 415 l 1,11,-1
 184 131 l 1,12,-1
 247 82 l 1,13,-1
 148 -18 l 1,14,-1
 148 -18 l 1,0,-1
EndSplineSet
EndChar
StartChar: u
Encoding: 117 117 69
Width: 463
Flags: W
LayerCount: 2
Back
Fore
SplineSet
35 56 m 1,0,-1
 36 57 l 1,1,-1
 36 528 l 1,2,-1
 181 528 l 1,3,-1
 181 132 l 1,4,-1
 269 82 l 1,5,-1
 269 528 l 1,6,-1
 414 528 l 1,7,-1
 414 134 l 1,8,-1
 498 86 l 1,9,-1
 399 -15 l 1,10,-1
 271 56 l 1,11,12
 245 38 245 38 218.5 20 c 128,-1,13
 192 2 192 2 166 -17 c 1,14,-1
 35 56 l 1,0,-1
EndSplineSet
EndChar
StartChar: v
Encoding: 118 118 70
Width: 437
Flags: W
LayerCount: 2
Back
Fore
SplineSet
402 480 m 1,0,-1
 398 107 l 1,1,-1
 216 -18 l 1,2,-1
 35 63 l 1,3,-1
 39 524 l 1,4,-1
 177 524 l 1,5,-1
 177 453 l 1,6,-1
 271 557 l 1,7,-1
 402 480 l 1,0,-1
264 408 m 1,8,-1
 217 438 l 1,9,-1
 177 398 l 1,10,-1
 174 135 l 1,11,-1
 261 96 l 1,12,-1
 264 408 l 1,8,-1
EndSplineSet
EndChar
StartChar: w
Encoding: 119 119 71
Width: 656
Flags: W
LayerCount: 2
Back
Fore
SplineSet
619 480 m 1,0,-1
 621 106 l 1,1,-1
 439 -18 l 1,2,-1
 262 61 l 1,3,-1
 166 -18 l 1,4,-1
 35 55 l 1,5,-1
 36 56 l 1,6,-1
 36 528 l 1,7,-1
 181 528 l 1,8,-1
 181 131 l 1,9,-1
 258 89 l 1,10,-1
 256 524 l 1,11,-1
 393 524 l 1,12,-1
 393 453 l 1,13,-1
 487 557 l 1,14,-1
 619 480 l 1,0,-1
480 408 m 1,15,-1
 433 438 l 1,16,-1
 393 398 l 1,17,-1
 396 134 l 1,18,-1
 483 96 l 1,19,-1
 480 408 l 1,15,-1
EndSplineSet
EndChar
StartChar: x
Encoding: 120 120 7
Width: 465
Flags: W
LayerCount: 2
Back
Fore
SplineSet
62 215 m 1,0,-1
 113 331 l 1,1,-1
 162 330 l 1,2,-1
 162 391 l 1,3,-1
 35 452 l 1,4,-1
 128 556 l 1,5,-1
 262 492 l 1,6,-1
 296 556 l 1,7,-1
 425 488 l 1,8,-1
 369 384 l 1,9,-1
 299 421 l 1,10,-1
 299 332 l 1,11,-1
 400 331 l 1,12,-1
 348 215 l 1,13,-1
 299 215 l 1,14,-1
 299 143 l 1,15,-1
 430 82 l 1,16,-1
 337 -22 l 1,17,-1
 203 42 l 1,18,-1
 168 -22 l 1,19,-1
 40 46 l 1,20,-1
 95 150 l 1,21,-1
 162 114 l 1,22,-1
 162 215 l 1,23,-1
 62 215 l 1,0,-1
EndSplineSet
EndChar
StartChar: y
Encoding: 121 121 72
Width: 448
Flags: W
LayerCount: 2
Back
Fore
SplineSet
35 528 m 1,0,-1
 180 528 l 1,1,-1
 180 131 l 1,2,-1
 268 81 l 1,3,-1
 268 528 l 1,4,-1
 413 528 l 1,5,-1
 413 -42 l 1,6,-1
 299 -168 l 1,7,-1
 53 -169 l 1,8,-1
 124 -62 l 1,9,-1
 268 -62 l 1,10,-1
 268 55 l 1,11,-1
 165 -17 l 1,12,-1
 35 55 l 1,13,-1
 35 528 l 1,14,-1
 35 528 l 1,0,-1
EndSplineSet
EndChar
StartChar: z
Encoding: 122 122 73
Width: 311
Flags: W
LayerCount: 2
Back
Fore
SplineSet
131 146 m 1,0,-1
 10 210 l 1,1,-1
 131 293 l 1,2,-1
 131 376 l 2,3,4
 131 395 131 395 118 408 c 128,-1,5
 105 421 105 421 86 421 c 2,6,-1
 10 421 l 1,7,-1
 50 528 l 1,8,-1
 180 528 l 2,9,10
 220 528 220 528 248 500 c 128,-1,11
 276 472 276 472 276 432 c 2,12,-1
 276 348 l 1,13,-1
 168 268 l 1,14,-1
 276 204 l 1,15,-1
 276 -62 l 1,16,-1
 174 -169 l 1,17,-1
 -19 -169 l 1,18,-1
 50 -62 l 1,19,-1
 131 -62 l 1,20,-1
 131 146 l 1,0,-1
EndSplineSet
EndChar
StartChar: braceleft
Encoding: 123 123 225
Width: 325
Flags: W
LayerCount: 2
Back
Fore
SplineSet
70 340 m 1,0,-1
 70 554 l 1,1,-1
 190 700 l 1,2,-1
 310 700 l 1,3,-1
 179 541 l 1,4,-1
 179 328 l 1,5,-1
 129 267 l 1,6,-1
 179 206 l 1,7,-1
 179 -10 l 1,8,-1
 310 -169 l 1,9,-1
 190 -169 l 1,10,-1
 70 -23 l 1,11,-1
 70 194 l 1,12,-1
 10 267 l 1,13,-1
 70 340 l 1,0,-1
EndSplineSet
EndChar
StartChar: bar
Encoding: 124 124 132
Width: 190
Flags: W
LayerCount: 2
Back
Fore
SplineSet
35 700 m 1,0,-1
 155 700 l 1,1,-1
 155 -165 l 1,2,-1
 35 -165 l 1,3,-1
 35 700 l 1,4,-1
 35 700 l 1,0,-1
EndSplineSet
EndChar
StartChar: braceright
Encoding: 125 125 224
Width: 324
Flags: W
LayerCount: 2
Back
Fore
SplineSet
314 267 m 1,0,-1
 254 194 l 1,1,-1
 254 -23 l 1,2,-1
 134 -169 l 1,3,-1
 14 -169 l 1,4,-1
 145 -10 l 1,5,-1
 145 206 l 1,6,-1
 195 267 l 1,7,-1
 145 328 l 1,8,-1
 145 541 l 1,9,-1
 14 700 l 1,10,-1
 134 700 l 1,11,-1
 254 554 l 1,12,-1
 254 340 l 1,13,-1
 314 267 l 1,0,-1
EndSplineSet
EndChar
StartChar: asciitilde
Encoding: 126 126 226
Width: 597
Flags: W
LayerCount: 2
Back
Fore
SplineSet
254 471 m 1,0,-1
 385 345 l 1,1,-1
 469 409 l 1,2,-1
 562 457 l 1,3,-1
 423 286 l 1,4,-1
 329 238 l 1,5,-1
 200 364 l 1,6,-1
 116 300 l 1,7,-1
 23 252 l 1,8,-1
 162 423 l 1,9,-1
 254 471 l 1,0,-1
EndSplineSet
EndChar
StartChar: exclamdown
Encoding: 161 161 227
Width: 269
Flags: W
LayerCount: 2
Back
Fore
SplineSet
35 -88 m 1,0,-1
 134 272 l 1,1,-1
 234 -88 l 1,2,-1
 138 -220 l 1,3,-1
 35 -88 l 1,0,-1
35 401 m 1,4,-1
 134 500 l 1,5,-1
 234 401 l 1,6,-1
 134 302 l 1,7,-1
 35 401 l 1,4,-1
EndSplineSet
EndChar
StartChar: cent
Encoding: 162 162 245
Width: 356
Flags: W
LayerCount: 2
Back
Fore
SplineSet
144 532 m 1,0,-1
 144 619 l 1,1,-1
 198 619 l 1,2,-1
 198 549 l 1,3,-1
 321 479 l 1,4,-1
 245 365 l 1,5,-1
 175 414 l 1,6,-1
 173 147 l 1,7,-1
 303 86 l 1,8,-1
 210 -18 l 1,9,-1
 198 -12 l 1,10,-1
 198 -52 l 1,11,-1
 144 -52 l 1,12,-1
 144 13 l 1,13,-1
 35 66 l 1,14,-1
 38 451 l 1,15,-1
 144 532 l 1,0,-1
EndSplineSet
EndChar
StartChar: sterling
Encoding: 163 163 205
Width: 377
Flags: W
LayerCount: 2
Back
Fore
SplineSet
80 303 m 1,0,-1
 80 549 l 1,1,-1
 196 700 l 1,2,-1
 377 700 l 1,3,-1
 319 560 l 1,4,-1
 235 560 l 1,5,-1
 235 336 l 1,6,-1
 350 336 l 1,7,-1
 290 206 l 1,8,-1
 227 206 l 1,9,-1
 176 140 l 1,10,-1
 377 140 l 1,11,-1
 302 0 l 1,12,-1
 35 0 l 1,13,-1
 80 83 l 1,14,-1
 80 206 l 1,15,-1
 35 206 l 1,16,-1
 80 303 l 1,0,-1
EndSplineSet
EndChar
StartChar: currency
Encoding: 164 164 249
Width: 498
Flags: W
LayerCount: 2
Back
Fore
SplineSet
147 273 m 0,0,1
 147 251 147 251 155.5 232.5 c 128,-1,2
 164 214 164 214 178 200 c 128,-1,3
 192 186 192 186 210.5 178 c 128,-1,4
 229 170 229 170 250 170 c 256,5,6
 271 170 271 170 289.5 178 c 128,-1,7
 308 186 308 186 322.5 200 c 128,-1,8
 337 214 337 214 345 232.5 c 128,-1,9
 353 251 353 251 353 273 c 0,10,11
 353 294 353 294 345 312.5 c 128,-1,12
 337 331 337 331 322.5 345 c 128,-1,13
 308 359 308 359 289.5 367 c 128,-1,14
 271 375 271 375 250 375 c 256,15,16
 229 375 229 375 210.5 367 c 128,-1,17
 192 359 192 359 178 345 c 128,-1,18
 164 331 164 331 155.5 312.5 c 128,-1,19
 147 294 147 294 147 273 c 0,0,1
28 269 m 0,20,21
 28 304 28 304 37.5 335.5 c 128,-1,22
 47 367 47 367 65 394 c 1,23,-1
 29 431 l 1,24,-1
 82 484 l 1,25,-1
 118 448 l 1,26,27
 146 469 146 469 178.5 480 c 128,-1,28
 211 491 211 491 248 491 c 0,29,30
 283 491 283 491 315.5 480 c 128,-1,31
 348 469 348 469 375 450 c 1,32,-1
 410 484 l 1,33,-1
 463 431 l 1,34,-1
 428 396 l 1,35,36
 447 369 447 369 457.5 337 c 128,-1,37
 468 305 468 305 468 269 c 0,38,39
 468 232 468 232 457 199.5 c 128,-1,40
 446 167 446 167 427 140 c 1,41,-1
 463 103 l 1,42,-1
 410 50 l 1,43,-1
 373 86 l 1,44,45
 346 68 346 68 314.5 57.5 c 128,-1,46
 283 47 283 47 248 47 c 0,47,48
 212 47 212 47 179.5 58 c 128,-1,49
 147 69 147 69 120 88 c 1,50,-1
 82 50 l 1,51,-1
 29 104 l 1,52,-1
 67 142 l 1,53,54
 49 169 49 169 38.5 201 c 128,-1,55
 28 233 28 233 28 269 c 0,20,21
EndSplineSet
EndChar
StartChar: yen
Encoding: 165 165 244
Width: 437
Flags: W
LayerCount: 2
Back
Fore
SplineSet
120 231 m 1,0,-1
 157 231 l 1,1,-1
 157 242 l 1,2,-1
 35 297 l 1,3,-1
 39 685 l 1,4,-1
 177 685 l 1,5,-1
 177 614 l 1,6,-1
 271 718 l 1,7,-1
 402 641 l 1,8,-1
 398 341 l 1,9,-1
 277 258 l 1,10,-1
 277 231 l 1,11,-1
 343 231 l 1,12,-1
 311 165 l 1,13,-1
 277 165 l 1,14,-1
 277 107 l 1,15,-1
 343 107 l 1,16,-1
 311 41 l 1,17,-1
 277 41 l 1,18,-1
 277 -2 l 1,19,-1
 157 -2 l 1,20,-1
 157 41 l 1,21,-1
 88 41 l 1,22,-1
 120 107 l 1,23,-1
 157 107 l 1,24,-1
 157 165 l 1,25,-1
 88 165 l 1,26,-1
 120 231 l 1,0,-1
264 569 m 1,27,-1
 217 599 l 1,28,-1
 177 559 l 1,29,-1
 174 369 l 1,30,-1
 261 330 l 1,31,-1
 264 569 l 1,27,-1
EndSplineSet
EndChar
StartChar: brokenbar
Encoding: 166 166 237
Width: 190
Flags: W
LayerCount: 2
Back
Fore
SplineSet
155 700 m 1,0,-1
 155 327 l 1,1,-1
 35 327 l 1,2,-1
 35 700 l 1,3,-1
 155 700 l 1,0,-1
35 -165 m 1,4,-1
 35 207 l 1,5,-1
 155 207 l 1,6,-1
 155 -165 l 1,7,-1
 35 -165 l 1,4,-1
EndSplineSet
EndChar
StartChar: section
Encoding: 167 167 87
Width: 403
Flags: W
LayerCount: 2
Back
Fore
SplineSet
152 490 m 1,0,-1
 152 458 l 1,1,-1
 310 379 l 2,2,3
 360 354 360 354 363 300 c 2,4,-1
 368 224 l 1,5,-1
 302 164 l 1,6,7
 332 150 332 150 350 128 c 128,-1,8
 368 106 368 106 368 71 c 2,9,-1
 368 -6 l 1,10,-1
 278 -119 l 1,11,-1
 35 -119 l 1,12,-1
 97 4 l 1,13,-1
 257 4 l 1,14,-1
 257 37 l 1,15,-1
 100 115 l 2,16,17
 52 139 52 139 47 194 c 2,18,-1
 41 270 l 1,19,-1
 107 331 l 1,20,21
 77 344 77 344 59 366.5 c 128,-1,22
 41 389 41 389 41 423 c 2,23,-1
 41 500 l 1,24,-1
 131 613 l 1,25,-1
 356 613 l 1,26,-1
 294 490 l 1,27,-1
 152 490 l 1,0,-1
158 237 m 1,28,-1
 252 189 l 1,29,-1
 252 258 l 1,30,-1
 158 305 l 1,31,-1
 158 237 l 1,28,-1
EndSplineSet
EndChar
StartChar: dieresis
Encoding: 168 168 95
Width: 434
Flags: W
LayerCount: 2
Back
Fore
SplineSet
399 617 m 1,0,-1
 310 528 l 1,1,-1
 221 617 l 1,2,-1
 310 707 l 1,3,-1
 399 617 l 1,0,-1
214 617 m 1,4,-1
 124 528 l 1,5,-1
 35 617 l 1,6,-1
 124 707 l 1,7,-1
 214 617 l 1,4,-1
EndSplineSet
EndChar
StartChar: copyright
Encoding: 169 169 246
Width: 711
Flags: W
LayerCount: 2
Back
Fore
SplineSet
121 297 m 0,0,1
 121 179 121 179 179 120 c 128,-1,2
 237 61 237 61 354 61 c 0,3,4
 472 61 472 61 530 120 c 128,-1,5
 588 179 588 179 588 297 c 0,6,7
 588 411 588 411 528.5 471.5 c 128,-1,8
 469 532 469 532 354 532 c 0,9,10
 297 532 297 532 253.5 517 c 128,-1,11
 210 502 210 502 180.5 472 c 128,-1,12
 151 442 151 442 136 398 c 128,-1,13
 121 354 121 354 121 297 c 0,0,1
458 451 m 1,14,-1
 440 402 l 1,15,16
 424 410 424 410 405.5 412 c 128,-1,17
 387 414 387 414 369 414 c 0,18,19
 342 414 342 414 327 404 c 128,-1,20
 312 394 312 394 303.5 377 c 128,-1,21
 295 360 295 360 293 339 c 128,-1,22
 291 318 291 318 291 297 c 0,23,24
 291 277 291 277 292.5 256 c 128,-1,25
 294 235 294 235 301.5 218 c 128,-1,26
 309 201 309 201 324 190.5 c 128,-1,27
 339 180 339 180 365 180 c 0,28,29
 384 180 384 180 403.5 182 c 128,-1,30
 423 184 423 184 441 191 c 1,31,-1
 458 144 l 1,32,33
 437 134 437 134 413.5 130 c 128,-1,34
 390 126 390 126 366 126 c 0,35,36
 325 126 325 126 297 139 c 128,-1,37
 269 152 269 152 252 174.5 c 128,-1,38
 235 197 235 197 227.5 229 c 128,-1,39
 220 261 220 261 220 299 c 256,40,41
 220 337 220 337 227.5 368 c 128,-1,42
 235 399 235 399 252.5 421 c 128,-1,43
 270 443 270 443 298 455 c 128,-1,44
 326 467 326 467 367 467 c 0,45,46
 391 467 391 467 413.5 462.5 c 128,-1,47
 436 458 436 458 458 451 c 1,14,-1
355 590 m 256,48,49
 424 590 424 590 481 570.5 c 128,-1,50
 538 551 538 551 579 513 c 128,-1,51
 620 475 620 475 642.5 420.5 c 128,-1,52
 665 366 665 366 665 296 c 0,53,54
 665 224 665 224 643 169.5 c 128,-1,55
 621 115 621 115 580.5 77.5 c 128,-1,56
 540 40 540 40 482.5 21 c 128,-1,57
 425 2 425 2 355 2 c 0,58,59
 286 2 286 2 229 21 c 128,-1,60
 172 40 172 40 131 77 c 128,-1,61
 90 114 90 114 68 169 c 128,-1,62
 46 224 46 224 46 296 c 0,63,64
 46 366 46 366 68.5 421 c 128,-1,65
 91 476 91 476 131.5 513.5 c 128,-1,66
 172 551 172 551 229 570.5 c 128,-1,67
 286 590 286 590 355 590 c 256,48,49
EndSplineSet
EndChar
StartChar: ordfeminine
Encoding: 170 170 239
Width: 298
Flags: W
LayerCount: 2
Back
Fore
SplineSet
263 662 m 1,0,-1
 264 426 l 1,1,-1
 304 395 l 1,2,-1
 242 333 l 1,3,-1
 197 372 l 1,4,-1
 144 335 l 1,5,-1
 24 389 l 1,6,-1
 23 633 l 1,7,-1
 143 715 l 1,8,-1
 263 662 l 1,0,-1
171 614 m 1,9,-1
 114 639 l 1,10,-1
 115 436 l 1,11,-1
 173 411 l 1,12,-1
 171 614 l 1,9,-1
EndSplineSet
EndChar
StartChar: guillemotleft
Encoding: 171 171 140
Width: 505
Flags: W
LayerCount: 2
Back
Fore
SplineSet
280 292 m 1,0,-1
 459 441 l 1,1,-1
 413 339 l 1,2,-1
 314 256 l 1,3,-1
 459 104 l 1,4,-1
 413 2 l 1,5,-1
 234 190 l 1,6,-1
 280 292 l 1,0,-1
87 292 m 1,7,-1
 266 441 l 1,8,-1
 220 339 l 1,9,-1
 121 256 l 1,10,-1
 266 104 l 1,11,-1
 220 2 l 1,12,-1
 41 190 l 1,13,-1
 87 292 l 1,7,-1
EndSplineSet
EndChar
StartChar: logicalnot
Encoding: 172 172 250
Width: 417
Flags: W
LayerCount: 2
Back
Fore
SplineSet
9 303 m 1,0,-1
 353 303 l 1,1,-1
 353 107 l 1,2,-1
 272 107 l 1,3,-1
 272 232 l 1,4,-1
 9 232 l 1,5,-1
 9 303 l 1,0,-1
EndSplineSet
EndChar
StartChar: registered
Encoding: 174 174 247
Width: 711
Flags: W
LayerCount: 2
Back
Fore
SplineSet
355 725 m 256,0,1
 424 725 424 725 481 705.5 c 128,-1,2
 538 686 538 686 579 648 c 128,-1,3
 620 610 620 610 642.5 555.5 c 128,-1,4
 665 501 665 501 665 431 c 0,5,6
 665 359 665 359 643 304.5 c 128,-1,7
 621 250 621 250 580.5 212.5 c 128,-1,8
 540 175 540 175 482.5 156 c 128,-1,9
 425 137 425 137 355 137 c 0,10,11
 286 137 286 137 229 156 c 128,-1,12
 172 175 172 175 131 212 c 128,-1,13
 90 249 90 249 68 304 c 128,-1,14
 46 359 46 359 46 431 c 0,15,16
 46 501 46 501 68.5 556 c 128,-1,17
 91 611 91 611 131.5 648.5 c 128,-1,18
 172 686 172 686 229 705.5 c 128,-1,19
 286 725 286 725 355 725 c 256,0,1
121 432 m 0,20,21
 121 314 121 314 179 255 c 128,-1,22
 237 196 237 196 354 196 c 0,23,24
 472 196 472 196 530 255 c 128,-1,25
 588 314 588 314 588 432 c 0,26,27
 588 546 588 546 528.5 606.5 c 128,-1,28
 469 667 469 667 354 667 c 0,29,30
 297 667 297 667 253.5 652 c 128,-1,31
 210 637 210 637 180.5 607 c 128,-1,32
 151 577 151 577 136 533 c 128,-1,33
 121 489 121 489 121 432 c 0,20,21
239 598 m 1,34,-1
 335 598 l 2,35,36
 362 598 362 598 389 595 c 128,-1,37
 416 592 416 592 437 581.5 c 128,-1,38
 458 571 458 571 471.5 551.5 c 128,-1,39
 485 532 485 532 485 499 c 0,40,41
 485 463 485 463 466.5 440 c 128,-1,42
 448 417 448 417 416 404 c 1,43,-1
 506 267 l 1,44,-1
 431 267 l 1,45,-1
 353 397 l 1,46,-1
 306 397 l 1,47,-1
 306 267 l 1,48,-1
 239 267 l 1,49,-1
 239 598 l 1,34,-1
335 550 m 2,50,-1
 306 550 l 1,51,-1
 306 444 l 1,52,-1
 366 444 l 2,53,54
 393 444 393 444 405 458.5 c 128,-1,55
 417 473 417 473 417 499 c 0,56,57
 417 519 417 519 410.5 529.5 c 128,-1,58
 404 540 404 540 392.5 544.5 c 128,-1,59
 381 549 381 549 366 549.5 c 128,-1,60
 351 550 351 550 335 550 c 2,50,-1
EndSplineSet
EndChar
StartChar: macron
Encoding: 175 175 251
Width: 434
Flags: W
LayerCount: 2
Back
Fore
SplineSet
82 665 m 1,0,-1
 397 665 l 1,1,-1
 354 573 l 1,2,-1
 39 573 l 1,3,-1
 82 665 l 1,0,-1
EndSplineSet
EndChar
StartChar: plusminus
Encoding: 177 177 236
Width: 528
Flags: W
LayerCount: 2
Back
Fore
SplineSet
95 132 m 1,0,-1
 490 132 l 1,1,-1
 443 29 l 1,2,-1
 48 29 l 1,3,-1
 95 132 l 1,0,-1
95 437 m 1,4,-1
 217 437 l 1,5,-1
 217 559 l 1,6,-1
 320 606 l 1,7,-1
 320 437 l 1,8,-1
 490 437 l 1,9,-1
 443 334 l 1,10,-1
 320 334 l 1,11,-1
 320 211 l 1,12,-1
 217 164 l 1,13,-1
 217 334 l 1,14,-1
 48 334 l 1,15,-1
 95 437 l 1,4,-1
EndSplineSet
EndChar
StartChar: twosuperior
Encoding: 178 178 233
Width: 355
Flags: W
LayerCount: 2
Back
Fore
SplineSet
196 701 m 2,0,1
 222 701 222 701 240.5 682.5 c 128,-1,2
 259 664 259 664 259 638 c 2,3,-1
 259 475 l 1,4,-1
 160 331 l 1,5,-1
 293 331 l 1,6,-1
 247 239 l 1,7,-1
 54 239 l 1,8,-1
 164 417 l 1,9,-1
 164 597 l 2,10,11
 164 609 164 609 155.5 618 c 128,-1,12
 147 627 147 627 135 627 c 2,13,-1
 53 627 l 1,14,-1
 85 701 l 1,15,-1
 196 701 l 2,0,1
EndSplineSet
EndChar
StartChar: threesuperior
Encoding: 179 179 232
Width: 306
Flags: W
LayerCount: 2
Back
Fore
SplineSet
161 332 m 1,0,-1
 161 431 l 2,1,2
 161 443 161 443 152 451.5 c 128,-1,3
 143 460 143 460 131 460 c 2,4,-1
 84 460 l 1,5,-1
 161 534 l 1,6,-1
 161 598 l 2,7,8
 161 611 161 611 152.5 619.5 c 128,-1,9
 144 628 144 628 131 628 c 2,10,-1
 50 628 l 1,11,-1
 82 702 l 1,12,-1
 192 702 l 2,13,14
 218 702 218 702 237 683.5 c 128,-1,15
 256 665 256 665 256 639 c 2,16,-1
 256 579 l 1,17,-1
 203 533 l 1,18,19
 226 529 226 529 241 511 c 128,-1,20
 256 493 256 493 256 470 c 2,21,-1
 256 332 l 1,22,-1
 186 240 l 1,23,-1
 50 240 l 1,24,-1
 94 332 l 1,25,-1
 161 332 l 1,0,-1
EndSplineSet
EndChar
StartChar: acute
Encoding: 180 180 164
Width: 434
Flags: W
LayerCount: 2
Back
Fore
SplineSet
377 663 m 1,0,-1
 222 556 l 1,1,-1
 196 582 l 1,2,-1
 288 753 l 1,3,-1
 377 663 l 1,0,-1
EndSplineSet
EndChar
StartChar: mu
Encoding: 181 181 229
Width: 463
Flags: W
LayerCount: 2
Back
Fore
SplineSet
36 -168 m 1,0,-1
 36 528 l 1,1,-1
 181 528 l 1,2,-1
 181 181 l 1,3,-1
 269 131 l 1,4,-1
 269 528 l 1,5,-1
 414 528 l 1,6,-1
 414 134 l 1,7,-1
 498 86 l 1,8,-1
 399 -15 l 1,9,-1
 181 100 l 1,10,-1
 181 -93 l 1,11,-1
 35 -169 l 1,12,-1
 36 -168 l 1,0,-1
EndSplineSet
EndChar
StartChar: paragraph
Encoding: 182 182 248
Width: 520
Flags: W
LayerCount: 2
Back
Fore
SplineSet
470 702 m 1,0,-1
 470 -159 l 1,1,-1
 386 -159 l 1,2,-1
 386 631 l 1,3,-1
 296 631 l 1,4,-1
 296 -159 l 1,5,-1
 212 -159 l 1,6,-1
 212 330 l 1,7,8
 164 330 164 330 132.5 340 c 128,-1,9
 101 350 101 350 82 372.5 c 128,-1,10
 63 395 63 395 55.5 430.5 c 128,-1,11
 48 466 48 466 48 519 c 0,12,13
 48 569 48 569 56.5 604 c 128,-1,14
 65 639 65 639 84.5 661 c 128,-1,15
 104 683 104 683 135.5 692.5 c 128,-1,16
 167 702 167 702 212 702 c 2,17,-1
 470 702 l 1,0,-1
EndSplineSet
EndChar
StartChar: periodcentered
Encoding: 183 183 193
Width: 269
Flags: W
LayerCount: 2
Back
Fore
SplineSet
234 461 m 1,0,-1
 134 362 l 1,1,-1
 35 461 l 1,2,-1
 134 560 l 1,3,-1
 234 461 l 1,0,-1
EndSplineSet
EndChar
StartChar: cedilla
Encoding: 184 184 216
Width: 434
Flags: W
LayerCount: 2
Back
Fore
SplineSet
304 -56 m 1,0,-1
 149 -163 l 1,1,-1
 123 -137 l 1,2,-1
 215 34 l 1,3,-1
 304 -56 l 1,0,-1
EndSplineSet
EndChar
StartChar: onesuperior
Encoding: 185 185 231
Width: 202
Flags: W
LayerCount: 2
Back
Fore
SplineSet
55 701 m 1,0,-1
 147 701 l 1,1,-1
 147 239 l 1,2,-1
 55 239 l 1,3,-1
 55 634 l 1,4,-1
 15 634 l 1,5,-1
 55 701 l 1,6,-1
 55 701 l 1,0,-1
EndSplineSet
EndChar
StartChar: ordmasculine
Encoding: 186 186 240
Width: 286
Flags: W
LayerCount: 2
Back
Fore
SplineSet
143 327 m 1,0,-1
 23 380 l 1,1,-1
 23 634 l 1,2,-1
 143 716 l 1,3,-1
 263 663 l 1,4,-1
 263 409 l 1,5,-1
 143 327 l 1,0,-1
172 402 m 1,6,-1
 172 615 l 1,7,-1
 114 640 l 1,8,-1
 114 427 l 1,9,-1
 172 402 l 1,6,-1
EndSplineSet
EndChar
StartChar: guillemotright
Encoding: 187 187 141
Width: 505
Flags: W
LayerCount: 2
Back
Fore
SplineSet
220 151 m 1,0,-1
 41 2 l 1,1,-1
 87 104 l 1,2,-1
 186 187 l 1,3,-1
 41 339 l 1,4,-1
 87 441 l 1,5,-1
 266 253 l 1,6,-1
 220 151 l 1,0,-1
413 151 m 1,7,-1
 234 2 l 1,8,-1
 280 104 l 1,9,-1
 379 187 l 1,10,-1
 234 339 l 1,11,-1
 280 441 l 1,12,-1
 459 253 l 1,13,-1
 413 151 l 1,7,-1
EndSplineSet
EndChar
StartChar: onequarter
Encoding: 188 188 230
Width: 773
Flags: W
LayerCount: 2
Back
Fore
SplineSet
79 701 m 1,0,-1
 171 701 l 1,1,-1
 171 239 l 1,2,-1
 79 239 l 1,3,-1
 79 634 l 1,4,-1
 39 634 l 1,5,-1
 79 701 l 1,0,-1
700 195 m 1,6,-1
 727 195 l 1,7,-1
 710 133 l 1,8,-1
 700 133 l 1,9,-1
 700 0 l 1,10,-1
 605 0 l 1,11,-1
 605 133 l 1,12,-1
 461 133 l 1,13,-1
 617 462 l 1,14,-1
 700 462 l 1,15,-1
 700 195 l 1,6,-1
605 338 m 1,16,-1
 537 195 l 1,17,-1
 605 195 l 1,18,-1
 605 338 l 1,16,-1
744 700 m 1,19,-1
 153 0 l 1,20,-1
 33 0 l 1,21,-1
 624 700 l 1,22,-1
 744 700 l 1,19,-1
EndSplineSet
EndChar
StartChar: onehalf
Encoding: 189 189 234
Width: 840
Flags: W
LayerCount: 2
Back
Fore
SplineSet
171 701 m 1,0,-1
 171 239 l 1,1,-1
 79 239 l 1,2,-1
 79 634 l 1,3,-1
 39 634 l 1,4,-1
 79 701 l 1,5,-1
 171 701 l 1,0,-1
744 700 m 1,6,-1
 153 0 l 1,7,-1
 33 0 l 1,8,-1
 624 700 l 1,9,-1
 744 700 l 1,6,-1
702 462 m 2,10,11
 728 462 728 462 746.5 443.5 c 128,-1,12
 765 425 765 425 765 399 c 2,13,-1
 765 236 l 1,14,-1
 666 92 l 1,15,-1
 799 92 l 1,16,-1
 753 0 l 1,17,-1
 560 0 l 1,18,-1
 670 178 l 1,19,-1
 670 358 l 2,20,21
 670 370 670 370 661.5 379 c 128,-1,22
 653 388 653 388 641 388 c 2,23,-1
 559 388 l 1,24,-1
 591 462 l 1,25,-1
 702 462 l 2,10,11
EndSplineSet
EndChar
StartChar: threequarters
Encoding: 190 190 235
Width: 771
Flags: W
LayerCount: 2
Back
Fore
SplineSet
700 195 m 1,0,-1
 727 195 l 1,1,-1
 710 133 l 1,2,-1
 700 133 l 1,3,-1
 700 0 l 1,4,-1
 605 0 l 1,5,-1
 605 133 l 1,6,-1
 461 133 l 1,7,-1
 617 462 l 1,8,-1
 700 462 l 1,9,-1
 700 195 l 1,0,-1
605 338 m 1,10,-1
 537 195 l 1,11,-1
 605 195 l 1,12,-1
 605 338 l 1,10,-1
744 700 m 1,13,-1
 153 0 l 1,14,-1
 33 0 l 1,15,-1
 624 700 l 1,16,-1
 744 700 l 1,13,-1
134 331 m 1,17,-1
 134 430 l 2,18,19
 134 442 134 442 125 450.5 c 128,-1,20
 116 459 116 459 104 459 c 2,21,-1
 57 459 l 1,22,-1
 134 533 l 1,23,-1
 118 533 l 1,24,-1
 134 533 l 1,25,-1
 134 597 l 2,26,27
 134 610 134 610 125.5 618.5 c 128,-1,28
 117 627 117 627 104 627 c 2,29,-1
 23 627 l 1,30,-1
 55 701 l 1,31,-1
 165 701 l 2,32,33
 191 701 191 701 210 682.5 c 128,-1,34
 229 664 229 664 229 638 c 2,35,-1
 229 578 l 1,36,-1
 176 532 l 1,37,38
 199 528 199 528 214 510 c 128,-1,39
 229 492 229 492 229 469 c 2,40,-1
 229 331 l 1,41,-1
 159 239 l 1,42,-1
 23 239 l 1,43,-1
 67 331 l 1,44,-1
 134 331 l 1,17,-1
EndSplineSet
EndChar
StartChar: questiondown
Encoding: 191 191 228
Width: 317
Flags: W
LayerCount: 2
Back
Fore
SplineSet
35 381 m 1,0,-1
 135 480 l 1,1,-1
 234 381 l 1,2,-1
 135 282 l 1,3,-1
 35 381 l 1,0,-1
238 -220 m 1,4,-1
 147 -220 l 2,5,6
 127 -220 127 -220 109.5 -212 c 128,-1,7
 92 -204 92 -204 78.5 -190.5 c 128,-1,8
 65 -177 65 -177 57 -159.5 c 128,-1,9
 49 -142 49 -142 49 -122 c 2,10,-1
 49 172 l 1,11,-1
 187 301 l 1,12,-1
 187 -108 l 1,13,-1
 282 -108 l 1,14,-1
 238 -220 l 1,4,-1
EndSplineSet
EndChar
StartChar: Adieresis
Encoding: 196 196 48
Width: 463
Flags: W
LayerCount: 2
Back
Fore
SplineSet
288 598 m 1,0,-1
 288 700 l 1,1,-1
 427 700 l 1,2,-1
 427 560 l 1,3,-1
 370 560 l 1,4,-1
 428 534 l 1,5,-1
 427 533 l 1,6,-1
 427 0 l 1,7,-1
 273 0 l 1,8,-1
 273 211 l 1,9,-1
 189 211 l 1,10,-1
 189 0 l 1,11,-1
 35 0 l 1,12,-1
 35 500 l 1,13,-1
 128 560 l 1,14,-1
 35 560 l 1,15,-1
 35 700 l 1,16,-1
 174 700 l 1,17,-1
 174 590 l 1,18,-1
 228 624 l 1,19,-1
 288 598 l 1,0,-1
273 334 m 1,20,-1
 273 454 l 1,21,-1
 189 491 l 1,22,-1
 189 334 l 1,23,-1
 273 334 l 1,20,-1
EndSplineSet
EndChar
StartChar: AE
Encoding: 198 198 215
Width: 605
Flags: W
LayerCount: 2
Back
Fore
SplineSet
520 433 m 1,0,-1
 471 293 l 1,1,-1
 420 293 l 1,2,-1
 416 114 l 1,3,-1
 583 114 l 1,4,-1
 555 0 l 1,5,-1
 274 0 l 1,6,-1
 274 226 l 1,7,-1
 189 226 l 1,8,-1
 189 0 l 1,9,-1
 35 0 l 1,10,-1
 35 589 l 1,11,-1
 228 713 l 1,12,-1
 363 652 l 1,13,-1
 409 704 l 1,14,-1
 598 704 l 1,15,-1
 548 560 l 1,16,-1
 420 560 l 1,17,-1
 420 433 l 1,18,-1
 520 433 l 1,0,-1
274 348 m 1,19,-1
 274 542 l 1,20,-1
 189 579 l 1,21,-1
 189 348 l 1,22,-1
 274 348 l 1,19,-1
EndSplineSet
EndChar
StartChar: Eth
Encoding: 208 208 190
Width: 473
Flags: W
LayerCount: 2
Back
Fore
SplineSet
20 398 m 1,0,-1
 41 398 l 1,1,-1
 41 491 l 1,2,-1
 114 558 l 1,3,-1
 -37 558 l 1,4,-1
 37 696 l 1,5,-1
 272 696 l 2,6,7
 306 696 306 696 336.5 683 c 128,-1,8
 367 670 367 670 389.5 647.5 c 128,-1,9
 412 625 412 625 425 594.5 c 128,-1,10
 438 564 438 564 438 530 c 2,11,-1
 438 140 l 1,12,-1
 297 0 l 1,13,-1
 -27 0 l 1,14,-1
 41 97 l 1,15,-1
 41 268 l 1,16,-1
 -40 268 l 1,17,-1
 20 398 l 1,0,-1
283 508 m 2,18,19
 283 528 283 528 269 543 c 128,-1,20
 255 558 255 558 234 558 c 2,21,-1
 195 558 l 1,22,-1
 195 398 l 1,23,-1
 276 398 l 1,24,-1
 216 268 l 1,25,-1
 195 268 l 1,26,-1
 195 212 l 1,27,-1
 116 140 l 1,28,-1
 283 140 l 1,29,-1
 283 508 l 2,18,19
EndSplineSet
EndChar
StartChar: Odieresis
Encoding: 214 214 49
Width: 478
Flags: W
LayerCount: 2
Back
Fore
SplineSet
303 591 m 1,0,-1
 303 700 l 1,1,-1
 443 700 l 1,2,-1
 443 560 l 1,3,-1
 373 560 l 1,4,-1
 443 529 l 1,5,-1
 442 114 l 1,6,-1
 238 -26 l 1,7,-1
 35 65 l 1,8,-1
 36 480 l 1,9,-1
 154 560 l 1,10,-1
 36 560 l 1,11,-1
 36 700 l 1,12,-1
 176 700 l 1,13,-1
 176 576 l 1,14,-1
 240 619 l 1,15,-1
 303 591 l 1,0,-1
288 449 m 1,16,-1
 191 491 l 1,17,-1
 191 145 l 1,18,-1
 288 102 l 1,19,-1
 288 449 l 1,16,-1
EndSplineSet
EndChar
StartChar: multiply
Encoding: 215 215 220
Width: 528
Flags: W
LayerCount: 2
Back
Fore
SplineSet
184 444 m 1,0,-1
 269 358 l 1,1,-1
 356 443 l 1,2,-1
 462 403 l 1,3,-1
 342 284 l 1,4,-1
 461 163 l 1,5,-1
 355 124 l 1,6,-1
 269 212 l 1,7,-1
 181 125 l 1,8,-1
 75 166 l 1,9,-1
 196 285 l 1,10,-1
 77 405 l 1,11,-1
 184 444 l 1,0,-1
EndSplineSet
EndChar
StartChar: Oslash
Encoding: 216 216 189
Width: 478
Flags: W
LayerCount: 2
Back
Fore
SplineSet
479 700 m 1,0,-1
 441 635 l 1,1,-1
 443 634 l 1,2,-1
 442 114 l 1,3,-1
 238 -26 l 1,4,-1
 91 39 l 1,5,-1
 68 0 l 1,6,-1
 2 0 l 1,7,-1
 39 63 l 1,8,-1
 35 65 l 1,9,-1
 36 585 l 1,10,-1
 240 725 l 1,11,-1
 388 658 l 1,12,-1
 413 700 l 1,13,-1
 479 700 l 1,0,-1
190 320 m 1,14,-1
 288 487 l 1,15,-1
 288 554 l 1,16,-1
 190 597 l 1,17,-1
 190 320 l 1,14,-1
288 374 m 1,18,-1
 190 207 l 1,19,-1
 190 145 l 1,20,-1
 288 102 l 1,21,-1
 288 374 l 1,18,-1
EndSplineSet
EndChar
StartChar: Udieresis
Encoding: 220 220 50
Width: 522
Flags: W
LayerCount: 2
Back
Fore
SplineSet
35 59 m 1,0,-1
 37 60 l 1,1,-1
 37 539 l 1,2,-1
 191 539 l 1,3,-1
 191 140 l 1,4,-1
 284 87 l 1,5,-1
 284 539 l 1,6,-1
 438 539 l 1,7,-1
 438 118 l 1,8,-1
 487 85 l 1,9,-1
 386 -17 l 1,10,-1
 284 59 l 1,11,-1
 174 -18 l 1,12,-1
 35 59 l 1,0,-1
37 560 m 1,13,-1
 37 700 l 1,14,-1
 176 700 l 1,15,-1
 176 560 l 1,16,-1
 37 560 l 1,13,-1
298 560 m 1,17,-1
 298 700 l 1,18,-1
 438 700 l 1,19,-1
 438 560 l 1,20,-1
 298 560 l 1,17,-1
EndSplineSet
EndChar
StartChar: Thorn
Encoding: 222 222 192
Width: 530
Flags: W
LayerCount: 2
Back
Fore
SplineSet
495 486 m 1,0,-1
 494 485 l 1,1,-1
 494 166 l 1,2,-1
 340 0 l 1,3,-1
 247 0 l 1,4,-1
 247 -82 l 1,5,-1
 93 -171 l 1,6,-1
 93 0 l 1,7,-1
 35 0 l 1,8,-1
 93 111 l 1,9,-1
 93 700 l 1,10,-1
 247 700 l 1,11,-1
 247 486 l 1,12,-1
 357 563 l 1,13,-1
 495 486 l 1,0,-1
340 405 m 1,14,-1
 247 458 l 1,15,-1
 247 140 l 1,16,-1
 340 140 l 1,17,-1
 340 405 l 1,14,-1
EndSplineSet
EndChar
StartChar: germandbls
Encoding: 223 223 83
Width: 449
Flags: W
LayerCount: 2
Back
Fore
SplineSet
35 -169 m 1,0,-1
 35 560 l 1,1,-1
 137 700 l 1,2,-1
 318 700 l 2,3,4
 358 700 358 700 381 670 c 128,-1,5
 404 640 404 640 404 600 c 2,6,-1
 404 516 l 1,7,-1
 306 441 l 1,8,-1
 414 376 l 1,9,-1
 414 44 l 1,10,-1
 269 -38 l 1,11,-1
 269 318 l 1,12,-1
 171 370 l 1,13,-1
 175 -90 l 1,14,-1
 35 -169 l 1,0,-1
171 398 m 1,15,-1
 269 466 l 1,16,-1
 269 548 l 2,17,18
 269 567 269 567 256 580 c 128,-1,19
 243 593 243 593 224 593 c 2,20,-1
 170 593 l 1,21,-1
 171 398 l 1,15,-1
EndSplineSet
EndChar
StartChar: ae
Encoding: 230 230 134
Width: 614
Flags: W
LayerCount: 2
Back
Fore
SplineSet
152 560 m 1,0,-1
 313 499 l 1,1,-1
 403 560 l 1,2,-1
 581 489 l 1,3,-1
 581 396 l 1,4,-1
 376 305 l 1,5,-1
 376 161 l 1,6,-1
 559 75 l 1,7,-1
 464 -18 l 1,8,-1
 302 42 l 1,9,-1
 213 -18 l 1,10,-1
 35 53 l 1,11,-1
 35 206 l 1,12,-1
 240 297 l 1,13,-1
 240 381 l 1,14,-1
 57 467 l 1,15,-1
 152 560 l 1,0,-1
239 126 m 1,16,-1
 240 255 l 1,17,-1
 170 224 l 1,18,-1
 170 153 l 1,19,-1
 239 126 l 1,16,-1
376 416 m 1,20,-1
 376 347 l 1,21,-1
 446 378 l 1,22,-1
 446 389 l 1,23,-1
 376 416 l 1,20,-1
EndSplineSet
EndChar
StartChar: eth
Encoding: 240 240 191
Width: 437
Flags: W
LayerCount: 2
Back
Fore
SplineSet
47 583 m 1,0,-1
 4 611 l 1,1,-1
 102 714 l 1,2,-1
 150 682 l 1,3,-1
 184 715 l 1,4,-1
 241 677 l 1,5,-1
 207 644 l 1,6,-1
 402 516 l 1,7,-1
 399 106 l 1,8,-1
 217 -18 l 1,9,-1
 36 63 l 1,10,-1
 39 453 l 1,11,-1
 140 523 l 1,12,-1
 105 545 l 1,13,-1
 68 510 l 1,14,-1
 11 548 l 1,15,-1
 47 583 l 1,0,-1
176 500 m 1,16,-1
 174 134 l 1,17,-1
 261 96 l 1,18,-1
 263 443 l 1,19,-1
 176 500 l 1,16,-1
EndSplineSet
EndChar
StartChar: divide
Encoding: 247 247 219
Width: 509
Flags: W
LayerCount: 2
Back
Fore
SplineSet
35 206 m 1,0,-1
 95 336 l 1,1,-1
 453 336 l 1,2,-1
 393 206 l 1,3,-1
 35 206 l 1,0,-1
340 449 m 1,4,-1
 240 350 l 1,5,-1
 141 449 l 1,6,-1
 240 548 l 1,7,-1
 340 449 l 1,4,-1
340 87 m 1,8,-1
 240 -12 l 1,9,-1
 141 87 l 1,10,-1
 240 186 l 1,11,-1
 340 87 l 1,8,-1
EndSplineSet
EndChar
StartChar: oslash
Encoding: 248 248 148
Width: 433
Flags: W
LayerCount: 2
Back
Fore
SplineSet
406 537 m 1,0,-1
 380 488 l 1,1,-1
 398 480 l 1,2,-1
 398 95 l 1,3,-1
 216 -29 l 1,4,-1
 126 10 l 1,5,-1
 121 0 l 1,6,-1
 11 0 l 1,7,-1
 37 50 l 1,8,-1
 35 51 l 1,9,-1
 35 436 l 1,10,-1
 217 560 l 1,11,-1
 291 527 l 1,12,-1
 296 537 l 1,13,-1
 406 537 l 1,0,-1
260 85 m 1,14,-1
 260 262 l 1,15,-1
 183 118 l 1,16,-1
 260 85 l 1,14,-1
173 305 m 1,17,-1
 233 419 l 1,18,-1
 173 446 l 1,19,-1
 173 305 l 1,17,-1
EndSplineSet
EndChar
StartChar: thorn
Encoding: 254 254 133
Width: 457
Flags: W
LayerCount: 2
Back
Fore
SplineSet
43 -168 m 1,0,-1
 43 0 l 1,1,-1
 -5 0 l 1,2,-1
 43 88 l 1,3,-1
 43 700 l 1,4,-1
 188 700 l 1,5,-1
 188 472 l 1,6,-1
 291 545 l 1,7,-1
 422 472 l 1,8,-1
 421 471 l 1,9,-1
 421 140 l 1,10,-1
 276 0 l 1,11,-1
 188 0 l 1,12,-1
 188 -93 l 1,13,-1
 42 -169 l 1,14,-1
 43 -168 l 1,0,-1
276 396 m 1,15,-1
 188 446 l 1,16,-1
 188 123 l 1,17,-1
 276 123 l 1,18,-1
 276 396 l 1,15,-1
EndSplineSet
EndChar
StartChar: dotlessi
Encoding: 305 305 117
Width: 264
Flags: W
LayerCount: 2
Back
Fore
SplineSet
188 -18 m 1,0,-1
 57 55 l 1,1,-1
 58 56 l 1,2,-1
 58 528 l 1,3,-1
 203 528 l 1,4,-1
 203 131 l 1,5,-1
 287 82 l 1,6,-1
 188 -18 l 1,7,-1
 188 -18 l 1,0,-1
EndSplineSet
EndChar
StartChar: OE
Encoding: 338 338 123
Width: 648
Flags: W
LayerCount: 2
Back
Fore
SplineSet
603 433 m 1,0,-1
 554 293 l 1,1,-1
 443 293 l 1,2,-1
 443 143 l 1,3,-1
 612 85 l 1,4,-1
 513 -23 l 1,5,-1
 339 43 l 1,6,-1
 238 -26 l 1,7,-1
 35 65 l 1,8,-1
 36 585 l 1,9,-1
 240 725 l 1,10,-1
 385 660 l 1,11,-1
 421 700 l 1,12,-1
 620 700 l 1,13,-1
 571 560 l 1,14,-1
 443 560 l 1,15,-1
 443 433 l 1,16,-1
 603 433 l 1,0,-1
288 554 m 1,17,-1
 190 597 l 1,18,-1
 190 145 l 1,19,-1
 288 102 l 1,20,-1
 288 554 l 1,17,-1
EndSplineSet
EndChar
StartChar: oe
Encoding: 339 339 124
Width: 636
Flags: W
LayerCount: 2
Back
Fore
SplineSet
217 560 m 1,0,-1
 341 505 l 1,1,-1
 423 560 l 1,2,-1
 597 489 l 1,3,-1
 595 487 l 1,4,-1
 601 489 l 1,5,-1
 601 226 l 1,6,-1
 416 139 l 1,7,-1
 579 75 l 1,8,-1
 484 -18 l 1,9,-1
 321 42 l 1,10,-1
 216 -29 l 1,11,-1
 35 51 l 1,12,-1
 35 436 l 1,13,-1
 217 560 l 1,0,-1
259 85 m 1,14,-1
 260 408 l 1,15,-1
 173 446 l 1,16,-1
 173 123 l 1,17,-1
 259 85 l 1,14,-1
399 414 m 1,18,-1
 398 178 l 1,19,-1
 466 208 l 1,20,-1
 466 389 l 1,21,-1
 399 414 l 1,18,-1
EndSplineSet
EndChar
StartChar: longs
Encoding: 383 383 82
Width: 240
Flags: W
LayerCount: 2
Back
Fore
SplineSet
45 560 m 1,0,-1
 147 700 l 1,1,-1
 299 700 l 1,2,-1
 262 601 l 1,3,-1
 184 601 l 1,4,-1
 184 -92 l 1,5,-1
 45 -169 l 1,6,-1
 45 560 l 1,7,-1
 45 560 l 1,0,-1
EndSplineSet
EndChar
StartChar: florin
Encoding: 402 402 243
Width: 236
Flags: W
LayerCount: 2
Back
Fore
SplineSet
8 421 m 1,0,-1
 48 495 l 1,1,-1
 48 560 l 1,2,-1
 150 700 l 1,3,-1
 303 700 l 1,4,-1
 266 601 l 1,5,-1
 184 601 l 1,6,-1
 184 528 l 1,7,-1
 266 528 l 1,8,-1
 229 421 l 1,9,-1
 184 421 l 1,10,-1
 184 -28 l 1,11,-1
 82 -168 l 1,12,-1
 -71 -168 l 1,13,-1
 -34 -69 l 1,14,-1
 48 -69 l 1,15,-1
 48 421 l 1,16,-1
 8 421 l 1,0,-1
EndSplineSet
EndChar
StartChar: circumflex
Encoding: 710 710 145
Width: 385
Flags: W
LayerCount: 2
Back
Fore
SplineSet
214 710 m 1,0,-1
 352 585 l 1,1,-1
 252 545 l 1,2,-1
 142 620 l 1,3,-1
 99 585 l 1,4,-1
 23 550 l 1,5,-1
 137 675 l 1,6,-1
 214 710 l 1,0,-1
EndSplineSet
EndChar
StartChar: caron
Encoding: 711 711 195
Width: 385
Flags: W
LayerCount: 2
Back
Fore
SplineSet
161 550 m 1,0,-1
 23 675 l 1,1,-1
 125 715 l 1,2,-1
 224 644 l 1,3,-1
 276 675 l 1,4,-1
 352 710 l 1,5,-1
 238 585 l 1,6,-1
 161 550 l 1,0,-1
EndSplineSet
EndChar
StartChar: ring
Encoding: 730 730 159
Width: 245
Flags: W
LayerCount: 2
Back
Fore
SplineSet
94 700 m 1,0,-1
 169 700 l 2,1,2
 191 700 191 700 207 686 c 128,-1,3
 223 672 223 672 223 653 c 2,4,-1
 223 611 l 1,5,-1
 151 541 l 1,6,-1
 76 541 l 2,7,8
 53 541 53 541 37.5 555 c 128,-1,9
 22 569 22 569 22 589 c 2,10,-1
 22 631 l 1,11,-1
 94 700 l 1,0,-1
141 622 m 2,12,13
 141 632 141 632 134 638.5 c 128,-1,14
 127 645 127 645 116 645 c 2,15,-1
 104 645 l 1,16,-1
 104 619 l 2,17,18
 104 610 104 610 111 603.5 c 128,-1,19
 118 597 118 597 129 597 c 2,20,-1
 141 597 l 1,21,-1
 141 622 l 2,12,13
EndSplineSet
EndChar
StartChar: tilde
Encoding: 732 732 208
Width: 385
Flags: W
LayerCount: 2
Back
Fore
SplineSet
171 710 m 1,0,-1
 276 642 l 1,1,-1
 309 670 l 1,2,-1
 368 701 l 1,3,-1
 279 591 l 1,4,-1
 219 560 l 1,5,-1
 111 627 l 1,6,-1
 82 600 l 1,7,-1
 23 569 l 1,8,-1
 112 679 l 1,9,-1
 171 710 l 1,0,-1
EndSplineSet
EndChar
StartChar: endash
Encoding: 8211 8211 121
Width: 509
Flags: W
LayerCount: 2
Back
Fore
SplineSet
35 206 m 1,0,-1
 95 336 l 1,1,-1
 453 336 l 1,2,-1
 393 206 l 1,3,-1
 35 206 l 1,4,-1
 35 206 l 1,0,-1
EndSplineSet
EndChar
StartChar: emdash
Encoding: 8212 8212 122
Width: 703
Flags: W
LayerCount: 2
Back
Fore
SplineSet
35 206 m 1,0,-1
 95 336 l 1,1,-1
 653 336 l 1,2,-1
 593 206 l 1,3,-1
 35 206 l 1,4,-1
 35 206 l 1,0,-1
EndSplineSet
EndChar
StartChar: quoteleft
Encoding: 8216 8216 202
Width: 252
Flags: W
LayerCount: 2
Back
Fore
SplineSet
51 538 m 2,0,1
 35 554 35 554 35 577 c 0,2,3
 35 588 35 588 41 596 c 128,-1,4
 47 604 47 604 51 615 c 1,5,-1
 174 739 l 1,6,-1
 217 696 l 1,7,-1
 154 633 l 1,8,-1
 211 577 l 1,9,-1
 112 477 l 1,10,-1
 51 538 l 2,0,1
EndSplineSet
EndChar
StartChar: quoteright
Encoding: 8217 8217 91
Width: 252
Flags: W
LayerCount: 2
Back
Fore
SplineSet
201 678 m 2,0,1
 217 662 217 662 217 639 c 0,2,3
 217 628 217 628 211 620 c 128,-1,4
 205 612 205 612 201 601 c 1,5,-1
 78 477 l 1,6,-1
 35 520 l 1,7,-1
 98 583 l 1,8,-1
 41 639 l 1,9,-1
 140 739 l 1,10,-1
 201 678 l 2,0,1
EndSplineSet
EndChar
StartChar: quotesinglbase
Encoding: 8218 8218 92
Width: 252
Flags: W
LayerCount: 2
Back
Fore
SplineSet
201 98 m 2,0,1
 217 82 217 82 217 59 c 0,2,3
 217 39 217 39 201 21 c 0,4,5
 171 -11 171 -11 140 -41.5 c 128,-1,6
 109 -72 109 -72 78 -103 c 1,7,-1
 35 -60 l 1,8,-1
 98 3 l 1,9,-1
 41 59 l 1,10,-1
 140 158 l 1,11,-1
 201 98 l 2,0,1
EndSplineSet
EndChar
StartChar: quotedblleft
Encoding: 8220 8220 201
Width: 408
Flags: W
LayerCount: 2
Back
Fore
SplineSet
208 538 m 2,0,1
 198 548 198 548 194 560 c 1,2,-1
 111 477 l 1,3,-1
 51 538 l 2,4,5
 35 554 35 554 35 577 c 0,6,7
 35 597 35 597 51 615 c 0,8,9
 81 647 81 647 112 677 c 128,-1,10
 143 707 143 707 174 739 c 1,11,-1
 217 696 l 1,12,-1
 154 633 l 1,13,-1
 194 593 l 1,14,15
 198 605 198 605 208 615 c 0,16,17
 239 646 239 646 269.5 676.5 c 128,-1,18
 300 707 300 707 331 739 c 1,19,-1
 373 696 l 1,20,-1
 311 633 l 1,21,-1
 367 577 l 1,22,-1
 268 477 l 1,23,-1
 208 538 l 2,0,1
EndSplineSet
EndChar
StartChar: quotedblright
Encoding: 8221 8221 90
Width: 408
Flags: W
LayerCount: 2
Back
Fore
SplineSet
200 678 m 2,0,1
 210 668 210 668 214 656 c 1,2,-1
 297 739 l 1,3,-1
 357 678 l 2,4,5
 373 662 373 662 373 639 c 0,6,7
 373 619 373 619 357 601 c 0,8,9
 327 569 327 569 296 539 c 128,-1,10
 265 509 265 509 234 477 c 1,11,-1
 191 520 l 1,12,-1
 254 583 l 1,13,-1
 214 623 l 1,14,15
 210 611 210 611 200 601 c 0,16,17
 169 570 169 570 138.5 539.5 c 128,-1,18
 108 509 108 509 77 477 c 1,19,-1
 35 520 l 1,20,-1
 97 583 l 1,21,-1
 41 639 l 1,22,-1
 140 739 l 1,23,-1
 200 678 l 2,0,1
EndSplineSet
EndChar
StartChar: quotedblbase
Encoding: 8222 8222 89
Width: 409
Flags: W
LayerCount: 2
Back
Fore
SplineSet
201 93 m 2,0,1
 211 83 211 83 214 71 c 1,2,-1
 297 154 l 1,3,-1
 358 93 l 2,4,5
 374 77 374 77 374 54 c 0,6,7
 374 34 374 34 358 16 c 0,8,9
 328 -16 328 -16 296.5 -46 c 128,-1,10
 265 -76 265 -76 234 -108 c 1,11,-1
 192 -65 l 1,12,-1
 255 -2 l 1,13,-1
 214 38 l 1,14,15
 211 26 211 26 201 16 c 0,16,17
 171 -16 171 -16 140 -46 c 128,-1,18
 109 -76 109 -76 78 -108 c 1,19,-1
 35 -65 l 1,20,-1
 98 -2 l 1,21,-1
 41 54 l 1,22,-1
 140 154 l 1,23,-1
 201 93 l 2,0,1
EndSplineSet
EndChar
StartChar: dagger
Encoding: 8224 8224 88
Width: 465
Flags: W
LayerCount: 2
Back
Fore
SplineSet
168 622 m 1,0,-1
 305 724 l 1,1,-1
 305 449 l 1,2,-1
 430 449 l 1,3,-1
 374 330 l 1,4,-1
 305 330 l 1,5,-1
 305 -67 l 1,6,-1
 168 -169 l 1,7,-1
 168 330 l 1,8,-1
 35 330 l 1,9,-1
 91 449 l 1,10,-1
 168 449 l 1,11,-1
 168 622 l 1,12,-1
 168 622 l 1,0,-1
EndSplineSet
EndChar
StartChar: daggerdbl
Encoding: 8225 8225 125
Width: 465
Flags: W
LayerCount: 2
Back
Fore
SplineSet
305 724 m 1,0,-1
 305 526 l 1,1,-1
 430 526 l 1,2,-1
 374 407 l 1,3,-1
 305 407 l 1,4,-1
 305 148 l 1,5,-1
 430 148 l 1,6,-1
 374 29 l 1,7,-1
 305 29 l 1,8,-1
 305 -67 l 1,9,-1
 168 -169 l 1,10,-1
 168 29 l 1,11,-1
 35 29 l 1,12,-1
 91 148 l 1,13,-1
 168 148 l 1,14,-1
 168 407 l 1,15,-1
 35 407 l 1,16,-1
 91 526 l 1,17,-1
 168 526 l 1,18,-1
 168 622 l 1,19,-1
 305 724 l 1,0,-1
EndSplineSet
EndChar
StartChar: bullet
Encoding: 8226 8226 223
Width: 369
Flags: W
LayerCount: 2
Back
Fore
SplineSet
328 468 m 1,0,-1
 175 316 l 1,1,-1
 23 468 l 1,2,-1
 175 619 l 1,3,-1
 328 468 l 1,0,-1
EndSplineSet
EndChar
StartChar: ellipsis
Encoding: 8230 8230 119
Width: 912
Flags: W
LayerCount: 2
Back
Fore
SplineSet
134 198 m 1,0,-1
 233 99 l 1,1,-1
 134 0 l 1,2,-1
 35 99 l 1,3,-1
 134 198 l 1,0,-1
456 198 m 1,4,-1
 555 99 l 1,5,-1
 456 0 l 1,6,-1
 357 99 l 1,7,-1
 456 198 l 1,4,-1
778 198 m 1,8,-1
 877 99 l 1,9,-1
 778 0 l 1,10,-1
 679 99 l 1,11,-1
 778 198 l 1,8,-1
EndSplineSet
EndChar
StartChar: guilsinglleft
Encoding: 8249 8249 138
Width: 308
Flags: W
LayerCount: 2
Back
Fore
SplineSet
87 292 m 1,0,-1
 266 441 l 1,1,-1
 220 339 l 1,2,-1
 121 256 l 1,3,-1
 266 104 l 1,4,-1
 220 2 l 1,5,-1
 41 190 l 1,6,-1
 87 292 l 1,0,-1
EndSplineSet
EndChar
StartChar: guilsinglright
Encoding: 8250 8250 139
Width: 308
Flags: W
LayerCount: 2
Back
Fore
SplineSet
220 151 m 1,0,-1
 41 2 l 1,1,-1
 87 104 l 1,2,-1
 186 187 l 1,3,-1
 41 339 l 1,4,-1
 87 441 l 1,5,-1
 266 253 l 1,6,-1
 220 151 l 1,0,-1
EndSplineSet
EndChar
StartChar: Euro
Encoding: 8364 8364 203
Width: 395
Flags: W
LayerCount: 2
Back
Fore
SplineSet
62 402 m 1,0,-1
 62 553 l 1,1,-1
 194 700 l 1,2,-1
 381 700 l 1,3,-1
 332 560 l 1,4,-1
 216 560 l 1,5,-1
 216 421 l 1,6,-1
 294 421 l 1,7,-1
 262 355 l 1,8,-1
 216 355 l 1,9,-1
 216 297 l 1,10,-1
 294 297 l 1,11,-1
 262 231 l 1,12,-1
 216 231 l 1,13,-1
 216 143 l 1,14,-1
 354 83 l 1,15,-1
 255 -25 l 1,16,-1
 61 63 l 1,17,-1
 62 64 l 1,18,-1
 62 231 l 1,19,-1
 39 231 l 1,20,-1
 62 278 l 1,21,-1
 62 355 l 1,22,-1
 39 355 l 1,23,-1
 62 402 l 1,0,-1
EndSplineSet
EndChar
StartChar: trademark
Encoding: 8482 8482 221
Width: 615
Flags: W
LayerCount: 2
Back
Fore
SplineSet
166 364 m 1,0,-1
 86 400 l 1,1,-1
 87 401 l 1,2,-1
 87 607 l 1,3,-1
 117 641 l 1,4,-1
 35 641 l 1,5,-1
 59 709 l 1,6,-1
 241 709 l 1,7,-1
 217 641 l 1,8,-1
 162 641 l 1,9,-1
 162 439 l 1,10,-1
 214 416 l 1,11,-1
 166 364 l 1,0,-1
509 718 m 1,12,-1
 576 681 l 1,13,-1
 576 680 l 1,14,-1
 576 370 l 1,15,-1
 501 370 l 1,16,-1
 501 641 l 1,17,-1
 456 667 l 1,18,-1
 456 370 l 1,19,-1
 381 370 l 1,20,-1
 381 641 l 1,21,-1
 336 667 l 1,22,-1
 336 370 l 1,23,-1
 261 370 l 1,24,-1
 261 709 l 1,25,-1
 336 709 l 1,26,-1
 336 681 l 1,27,-1
 389 718 l 1,28,-1
 456 681 l 1,29,-1
 509 718 l 1,12,-1
EndSplineSet
EndChar
StartChar: ff
Encoding: 64256 64256 77
Width: 585
Flags: W
LayerCount: 2
Back
Fore
SplineSet
513 528 m 1,0,-1
 476 420 l 1,1,-1
 432 420 l 1,2,-1
 435 -92 l 1,3,-1
 296 -169 l 1,4,-1
 296 420 l 1,5,-1
 212 420 l 1,6,-1
 216 -92 l 1,7,-1
 76 -169 l 1,8,-1
 76 420 l 1,9,-1
 35 420 l 1,10,-1
 76 495 l 1,11,-1
 76 560 l 1,12,-1
 178 700 l 1,13,-1
 330 700 l 1,14,-1
 293 601 l 1,15,-1
 211 598 l 1,16,-1
 211 528 l 1,17,-1
 296 528 l 1,18,-1
 296 560 l 1,19,-1
 398 700 l 1,20,-1
 550 700 l 1,21,-1
 513 601 l 1,22,-1
 430 598 l 1,23,-1
 431 528 l 1,24,-1
 513 528 l 1,25,-1
 513 528 l 1,0,-1
EndSplineSet
EndChar
StartChar: fi
Encoding: 64257 64257 78
Width: 571
Flags: W
LayerCount: 2
Back
Fore
SplineSet
466 700 m 1,0,-1
 426 600 l 1,1,-1
 312 600 l 1,2,-1
 349 699 l 1,3,-1
 466 700 l 1,0,-1
306 55 m 1,4,-1
 307 56 l 1,5,-1
 307 491 l 1,6,-1
 282 420 l 1,7,-1
 211 420 l 1,8,-1
 211 -93 l 1,9,-1
 75 -169 l 1,10,-1
 75 420 l 1,11,-1
 35 420 l 1,12,-1
 75 495 l 1,13,-1
 75 560 l 1,14,-1
 177 700 l 1,15,-1
 330 700 l 1,16,-1
 295 600 l 1,17,-1
 210 598 l 1,18,-1
 211 528 l 1,19,-1
 452 528 l 1,20,-1
 452 130 l 1,21,-1
 536 82 l 1,22,-1
 436 -18 l 1,23,-1
 306 55 l 1,4,-1
EndSplineSet
EndChar
StartChar: fl
Encoding: 64258 64258 79
Width: 577
Flags: W
LayerCount: 2
Back
Fore
SplineSet
293 528 m 1,0,-1
 256 420 l 1,1,-1
 211 420 l 1,2,-1
 215 -92 l 1,3,-1
 75 -169 l 1,4,-1
 75 420 l 1,5,-1
 35 420 l 1,6,-1
 75 495 l 1,7,-1
 75 560 l 1,8,-1
 177 700 l 1,9,-1
 458 700 l 1,10,-1
 458 130 l 1,11,-1
 542 82 l 1,12,-1
 442 -18 l 1,13,-1
 312 55 l 1,14,-1
 313 56 l 1,15,-1
 313 655 l 1,16,-1
 292 601 l 1,17,-1
 210 598 l 1,18,-1
 210 528 l 1,19,-1
 293 528 l 1,20,-1
 293 528 l 1,0,-1
EndSplineSet
EndChar
StartChar: ffi
Encoding: 64259 64259 110
Width: 720
Flags: W
LayerCount: 2
Back
Fore
SplineSet
293 560 m 1,0,-1
 383 699 l 1,1,-1
 548 700 l 1,2,-1
 513 600 l 1,3,-1
 428 598 l 1,4,-1
 429 528 l 1,5,-1
 670 528 l 1,6,-1
 670 130 l 1,7,-1
 754 82 l 1,8,-1
 654 -18 l 1,9,-1
 524 55 l 1,10,-1
 525 56 l 1,11,-1
 525 491 l 1,12,-1
 500 420 l 1,13,-1
 429 420 l 1,14,-1
 429 -93 l 1,15,-1
 293 -169 l 1,16,-1
 293 420 l 1,17,-1
 184 421 l 1,18,-1
 184 -92 l 1,19,-1
 48 -169 l 1,20,-1
 48 421 l 1,21,-1
 8 421 l 1,22,-1
 48 495 l 1,23,-1
 48 560 l 1,24,-1
 150 700 l 1,25,-1
 358 699 l 1,26,-1
 292 601 l 1,27,-1
 184 601 l 1,28,-1
 184 528 l 1,29,-1
 293 528 l 1,30,-1
 293 560 l 1,0,-1
684 700 m 1,31,-1
 644 600 l 1,32,-1
 530 600 l 1,33,-1
 567 699 l 1,34,-1
 684 700 l 1,31,-1
EndSplineSet
EndChar
StartChar: ffl
Encoding: 64260 64260 114
Width: 692
Flags: W
LayerCount: 2
Back
Fore
SplineSet
454 421 m 1,0,-1
 420 421 l 1,1,-1
 420 -92 l 1,2,-1
 284 -169 l 1,3,-1
 284 421 l 1,4,-1
 184 421 l 1,5,-1
 184 -92 l 1,6,-1
 48 -169 l 1,7,-1
 48 421 l 1,8,-1
 8 421 l 1,9,-1
 48 495 l 1,10,-1
 48 560 l 1,11,-1
 150 700 l 1,12,-1
 347 700 l 1,13,-1
 279 601 l 1,14,-1
 184 601 l 1,15,-1
 184 528 l 1,16,-1
 284 528 l 1,17,-1
 284 560 l 1,18,-1
 386 700 l 1,19,-1
 653 700 l 1,20,-1
 653 131 l 1,21,-1
 737 82 l 1,22,-1
 638 -18 l 1,23,-1
 507 55 l 1,24,-1
 508 56 l 1,25,-1
 507 601 l 1,26,-1
 420 601 l 1,27,-1
 420 528 l 1,28,-1
 491 528 l 1,29,-1
 454 421 l 1,0,-1
EndSplineSet
EndChar
StartChar: longs_t
Encoding: 64261 64261 109
Width: 443
Flags: W
LayerCount: 2
Back
Fore
SplineSet
137 700 m 1,0,-1
 353 700 l 1,1,-1
 252 601 l 1,2,-1
 174 601 l 1,3,-1
 174 -92 l 1,4,-1
 35 -169 l 1,5,-1
 35 560 l 1,6,-1
 137 700 l 1,0,-1
250 55 m 1,7,-1
 251 56 l 1,8,-1
 251 415 l 1,9,-1
 217 415 l 1,10,-1
 251 473 l 1,11,-1
 251 564 l 1,12,-1
 396 700 l 1,13,-1
 396 528 l 1,14,-1
 472 528 l 1,15,-1
 433 415 l 1,16,-1
 396 415 l 1,17,-1
 396 131 l 1,18,-1
 459 82 l 1,19,-1
 360 -18 l 1,20,-1
 250 55 l 1,7,-1
EndSplineSet
EndChar
StartChar: .notdef
Encoding: 65536 -1 0
Width: 1000
Flags: W
LayerCount: 2
Back
Fore
SplineSet
499 760 m 1,0,-1
 958 302 l 1,1,-1
 499 -156 l 1,2,-1
 41 302 l 1,3,-1
 499 760 l 1,0,-1
531 179 m 1,4,-1
 531 202 l 2,5,6
 531 227 531 227 541.5 242.5 c 128,-1,7
 552 258 552 258 584 282 c 0,8,9
 634 322 634 322 652 353 c 128,-1,10
 670 384 670 384 670 427 c 0,11,12
 670 493 670 493 624.5 530.5 c 128,-1,13
 579 568 579 568 498 568 c 0,14,15
 459 568 459 568 414 554.5 c 128,-1,16
 369 541 369 541 334 520 c 1,17,-1
 374 433 l 1,18,19
 452 472 452 472 496 472 c 0,20,21
 527 472 527 472 542 458 c 128,-1,22
 557 444 557 444 557 421 c 0,23,24
 557 395 557 395 545 376.5 c 128,-1,25
 533 358 533 358 498 332 c 0,26,27
 457 299 457 299 442.5 271.5 c 128,-1,28
 428 244 428 244 428 208 c 2,29,-1
 428 179 l 1,30,-1
 531 179 l 1,4,-1
415 45 m 0,31,32
 415 14 415 14 432.5 -3.5 c 128,-1,33
 450 -21 450 -21 484 -21 c 0,34,35
 516 -21 516 -21 534 -3 c 128,-1,36
 552 15 552 15 552 45 c 0,37,38
 552 76 552 76 534.5 94 c 128,-1,39
 517 112 517 112 484 112 c 0,40,41
 449 112 449 112 432 94.5 c 128,-1,42
 415 77 415 77 415 45 c 0,31,32
EndSplineSet
EndChar
StartChar: c_h
Encoding: 65538 -1 75
Width: 710
Flags: W
LayerCount: 2
Back
Fore
SplineSet
545 560 m 1,0,-1
 675 488 l 1,1,-1
 674 487 l 1,2,-1
 674 0 l 1,3,-1
 529 0 l 1,4,-1
 529 412 l 1,5,-1
 441 462 l 1,6,-1
 441 0 l 1,7,-1
 296 0 l 1,8,-1
 296 442 l 1,9,-1
 245 365 l 1,10,-1
 175 414 l 1,11,-1
 172 147 l 1,12,-1
 278 98 l 1,13,-1
 202 -20 l 1,14,-1
 35 66 l 1,15,-1
 38 451 l 1,16,-1
 179 560 l 1,17,-1
 296 493 l 1,18,-1
 296 700 l 1,19,-1
 441 700 l 1,20,-1
 441 488 l 1,21,-1
 545 560 l 1,22,-1
 545 560 l 1,0,-1
EndSplineSet
EndChar
StartChar: c_k
Encoding: 65537 -1 74
Width: 705
Flags: W
LayerCount: 2
Back
Fore
SplineSet
670 280 m 1,0,-1
 669 279 l 1,1,-1
 669 0 l 1,2,-1
 524 0 l 1,3,-1
 524 204 l 1,4,-1
 436 254 l 1,5,-1
 436 0 l 1,6,-1
 291 0 l 1,7,-1
 291 433 l 1,8,-1
 245 365 l 1,9,-1
 176 414 l 1,10,-1
 173 147 l 1,11,-1
 278 98 l 1,12,-1
 203 -20 l 1,13,-1
 35 66 l 1,14,-1
 38 451 l 1,15,-1
 180 560 l 1,16,-1
 291 496 l 1,17,-1
 291 700 l 1,18,-1
 436 700 l 1,19,-1
 436 488 l 1,20,-1
 539 560 l 1,21,-1
 670 488 l 1,22,-1
 669 487 l 1,23,-1
 669 400 l 1,24,-1
 566 338 l 1,25,-1
 670 280 l 1,0,-1
524 342 m 1,26,-1
 524 412 l 1,27,-1
 436 462 l 1,28,-1
 436 280 l 1,29,-1
 524 342 l 1,26,-1
EndSplineSet
EndChar
StartChar: f_f_t
Encoding: 65550 -1 106
Width: 709
Flags: W
LayerCount: 2
Back
Fore
SplineSet
516 55 m 1,0,-1
 517 56 l 1,1,-1
 517 421 l 1,2,-1
 420 421 l 1,3,-1
 420 -92 l 1,4,-1
 284 -169 l 1,5,-1
 284 421 l 1,6,-1
 184 421 l 1,7,-1
 184 -92 l 1,8,-1
 48 -169 l 1,9,-1
 48 421 l 1,10,-1
 8 421 l 1,11,-1
 48 495 l 1,12,-1
 48 560 l 1,13,-1
 150 700 l 1,14,-1
 353 700 l 1,15,-1
 288 601 l 1,16,-1
 184 601 l 1,17,-1
 184 528 l 1,18,-1
 284 528 l 1,19,-1
 284 560 l 1,20,-1
 386 700 l 1,21,-1
 612 700 l 1,22,-1
 492 601 l 1,23,-1
 420 601 l 1,24,-1
 420 528 l 1,25,-1
 517 528 l 1,26,-1
 517 586 l 1,27,-1
 662 700 l 1,28,-1
 662 528 l 1,29,-1
 738 528 l 1,30,-1
 699 415 l 1,31,-1
 662 415 l 1,32,-1
 662 131 l 1,33,-1
 725 82 l 1,34,-1
 626 -18 l 1,35,-1
 516 55 l 1,0,-1
EndSplineSet
EndChar
StartChar: f_j
Encoding: 65549 -1 105
Width: 477
Flags: W
LayerCount: 2
Back
Fore
SplineSet
285 -171 m 1,0,-1
 286 -170 l 1,1,-1
 286 54 l 1,2,-1
 285 55 l 1,3,-1
 286 56 l 1,4,-1
 286 491 l 1,5,-1
 261 420 l 1,6,-1
 190 420 l 1,7,-1
 190 -93 l 1,8,-1
 54 -169 l 1,9,-1
 54 420 l 1,10,-1
 14 420 l 1,11,-1
 54 495 l 1,12,-1
 54 560 l 1,13,-1
 156 700 l 1,14,-1
 309 700 l 1,15,-1
 274 600 l 1,16,-1
 189 598 l 1,17,-1
 190 528 l 1,18,-1
 431 528 l 1,19,-1
 431 -95 l 1,20,-1
 285 -171 l 1,0,-1
445 700 m 1,21,-1
 405 600 l 1,22,-1
 291 600 l 1,23,-1
 328 699 l 1,24,-1
 445 700 l 1,21,-1
EndSplineSet
EndChar
StartChar: f_t
Encoding: 65540 -1 80
Width: 560
Flags: W
LayerCount: 2
Back
Fore
SplineSet
425 -18 m 1,0,-1
 303 56 l 1,1,-1
 303 420 l 1,2,-1
 212 420 l 1,3,-1
 211 -98 l 1,4,-1
 76 -169 l 1,5,-1
 76 420 l 1,6,-1
 35 420 l 1,7,-1
 76 495 l 1,8,-1
 76 560 l 1,9,-1
 178 700 l 1,10,-1
 393 700 l 1,11,-1
 277 601 l 1,12,-1
 211 601 l 1,13,-1
 211 528 l 1,14,-1
 303 528 l 1,15,-1
 303 588 l 1,16,-1
 441 700 l 1,17,-1
 441 528 l 1,18,-1
 516 528 l 1,19,-1
 479 420 l 1,20,-1
 441 420 l 1,21,-1
 441 130 l 1,22,-1
 525 82 l 1,23,-1
 425 -18 l 1,24,-1
 425 -18 l 1,0,-1
EndSplineSet
EndChar
StartChar: germandblS
Encoding: 65559 -1 241
Width: 466
Flags: W
LayerCount: 2
Back
Fore
SplineSet
283 560 m 1,0,-1
 189 560 l 1,1,-1
 189 0 l 1,2,-1
 35 0 l 1,3,-1
 35 553 l 1,4,-1
 167 700 l 1,5,-1
 455 701 l 1,6,-1
 360 500 l 1,7,-1
 451 453 l 1,8,-1
 450 452 l 1,9,-1
 450 -85 l 1,10,-1
 303 -186 l 1,11,-1
 303 369 l 1,12,-1
 211 413 l 1,13,-1
 283 560 l 1,0,-1
EndSplineSet
EndChar
StartChar: l_l
Encoding: 65551 -1 107
Width: 436
Flags: W
LayerCount: 2
Back
Fore
SplineSet
384 -18 m 1,0,-1
 253 55 l 1,1,-1
 254 56 l 1,2,-1
 166 -18 l 1,3,-1
 35 55 l 1,4,-1
 36 56 l 1,5,-1
 36 700 l 1,6,-1
 181 700 l 1,7,-1
 181 131 l 1,8,-1
 254 88 l 1,9,-1
 254 700 l 1,10,-1
 399 700 l 1,11,-1
 399 131 l 1,12,-1
 483 82 l 1,13,-1
 384 -18 l 1,0,-1
EndSplineSet
EndChar
StartChar: longs_c_h
Encoding: 65539 -1 76
Width: 921
Flags: W
LayerCount: 2
Back
Fore
SplineSet
137 700 m 1,0,-1
 329 700 l 1,1,-1
 292 601 l 1,2,-1
 175 601 l 1,3,-1
 175 -92 l 1,4,-1
 35 -169 l 1,5,-1
 35 560 l 1,6,-1
 137 700 l 1,0,-1
886 488 m 1,7,-1
 886 0 l 1,8,-1
 740 0 l 1,9,-1
 740 412 l 1,10,-1
 653 462 l 1,11,-1
 653 0 l 1,12,-1
 507 0 l 1,13,-1
 507 442 l 1,14,-1
 456 365 l 1,15,-1
 386 414 l 1,16,-1
 383 147 l 1,17,-1
 489 98 l 1,18,-1
 414 -20 l 1,19,-1
 246 66 l 1,20,-1
 249 451 l 1,21,-1
 390 560 l 1,22,-1
 507 493 l 1,23,-1
 507 700 l 1,24,-1
 653 700 l 1,25,-1
 653 488 l 1,26,-1
 756 560 l 1,27,-1
 886 488 l 1,7,-1
EndSplineSet
EndChar
StartChar: longs_h
Encoding: 65545 -1 101
Width: 669
Flags: W
LayerCount: 2
Back
Fore
SplineSet
500 560 m 1,0,-1
 631 488 l 1,1,-1
 630 487 l 1,2,-1
 630 0 l 1,3,-1
 485 0 l 1,4,-1
 485 412 l 1,5,-1
 397 462 l 1,6,-1
 397 0 l 1,7,-1
 252 0 l 1,8,-1
 252 601 l 1,9,-1
 174 601 l 1,10,-1
 174 -92 l 1,11,-1
 35 -169 l 1,12,-1
 35 560 l 1,13,-1
 137 700 l 1,14,-1
 397 700 l 1,15,-1
 397 488 l 1,16,-1
 500 560 l 1,0,-1
EndSplineSet
EndChar
StartChar: longs_i
Encoding: 65541 -1 81
Width: 451
Flags: W
LayerCount: 2
Back
Fore
SplineSet
426 700 m 1,0,-1
 386 599 l 1,1,-1
 272 599 l 1,2,-1
 309 699 l 1,3,4
 319 699 319 699 329 699.5 c 128,-1,5
 339 700 339 700 349 700 c 2,6,-1
 426 700 l 1,0,-1
265 55 m 1,7,-1
 266 56 l 1,8,-1
 266 528 l 1,9,-1
 411 528 l 1,10,-1
 411 130 l 1,11,-1
 495 82 l 1,12,-1
 396 -18 l 1,13,-1
 265 55 l 1,7,-1
175 -92 m 1,14,-1
 35 -169 l 1,15,-1
 35 560 l 1,16,-1
 137 700 l 1,17,-1
 289 700 l 1,18,-1
 251 599 l 1,19,-1
 175 599 l 1,20,-1
 175 -92 l 1,14,-1
EndSplineSet
EndChar
StartChar: longs_k
Encoding: 65552 -1 108
Width: 673
Flags: W
LayerCount: 2
Back
Fore
SplineSet
525 338 m 1,0,-1
 629 280 l 1,1,-1
 628 279 l 1,2,-1
 628 0 l 1,3,-1
 483 0 l 1,4,-1
 483 205 l 1,5,-1
 395 255 l 1,6,-1
 395 0 l 1,7,-1
 250 0 l 1,8,-1
 250 601 l 1,9,-1
 174 601 l 1,10,-1
 174 -92 l 1,11,-1
 35 -169 l 1,12,-1
 35 560 l 1,13,-1
 137 700 l 1,14,-1
 395 700 l 1,15,-1
 395 488 l 1,16,-1
 499 560 l 1,17,-1
 629 488 l 1,18,-1
 628 487 l 1,19,-1
 628 400 l 1,20,-1
 525 338 l 1,0,-1
395 281 m 1,21,-1
 483 342 l 1,22,-1
 483 412 l 1,23,-1
 395 462 l 1,24,-1
 395 281 l 1,21,-1
EndSplineSet
EndChar
StartChar: longs_l
Encoding: 65546 -1 102
Width: 506
Flags: W
LayerCount: 2
Back
Fore
SplineSet
382 -18 m 1,0,-1
 251 55 l 1,1,-1
 252 56 l 1,2,-1
 252 601 l 1,3,-1
 174 601 l 1,4,-1
 174 -92 l 1,5,-1
 35 -169 l 1,6,-1
 35 560 l 1,7,-1
 137 700 l 1,8,-1
 397 700 l 1,9,-1
 397 131 l 1,10,-1
 481 82 l 1,11,-1
 382 -18 l 1,0,-1
EndSplineSet
EndChar
StartChar: longs_longs_i
Encoding: 65547 -1 103
Width: 671
Flags: W
LayerCount: 2
Back
Fore
SplineSet
647 690 m 1,0,-1
 607 589 l 1,1,-1
 493 589 l 1,2,-1
 530 689 l 1,3,4
 540 689 540 689 550 689.5 c 128,-1,5
 560 690 560 690 570 690 c 2,6,-1
 647 690 l 1,0,-1
486 45 m 1,7,-1
 487 46 l 1,8,-1
 487 518 l 1,9,-1
 632 518 l 1,10,-1
 632 120 l 1,11,-1
 716 72 l 1,12,-1
 617 -28 l 1,13,-1
 486 45 l 1,7,-1
396 -102 m 1,14,-1
 256 -179 l 1,15,-1
 256 550 l 1,16,-1
 358 690 l 1,17,-1
 510 690 l 1,18,-1
 472 589 l 1,19,-1
 396 589 l 1,20,-1
 396 -102 l 1,14,-1
137 700 m 1,21,-1
 289 700 l 1,22,-1
 252 601 l 1,23,-1
 174 601 l 1,24,-1
 174 -92 l 1,25,-1
 35 -169 l 1,26,-1
 35 560 l 1,27,-1
 137 700 l 1,21,-1
EndSplineSet
EndChar
StartChar: longs_longs_k
Encoding: 65554 -1 112
Width: 861
Flags: W
LayerCount: 2
Back
Fore
SplineSet
826 280 m 1,0,-1
 825 279 l 1,1,-1
 825 0 l 1,2,-1
 680 0 l 1,3,-1
 680 205 l 1,4,-1
 592 255 l 1,5,-1
 592 0 l 1,6,-1
 447 0 l 1,7,-1
 447 601 l 1,8,-1
 380 601 l 1,9,-1
 380 -92 l 1,10,-1
 241 -169 l 1,11,-1
 241 560 l 1,12,-1
 343 700 l 1,13,-1
 592 700 l 1,14,-1
 592 488 l 1,15,-1
 696 560 l 1,16,-1
 826 488 l 1,17,-1
 825 487 l 1,18,-1
 825 400 l 1,19,-1
 722 338 l 1,20,-1
 826 280 l 1,0,-1
137 700 m 1,21,-1
 305 700 l 1,22,-1
 243 601 l 1,23,-1
 174 601 l 1,24,-1
 174 -92 l 1,25,-1
 35 -169 l 1,26,-1
 35 560 l 1,27,-1
 137 700 l 1,21,-1
680 342 m 1,28,-1
 680 412 l 1,29,-1
 592 462 l 1,30,-1
 592 281 l 1,31,-1
 680 342 l 1,28,-1
EndSplineSet
EndChar
StartChar: longs_longs_l
Encoding: 65548 -1 104
Width: 640
Flags: W
LayerCount: 2
Back
Fore
SplineSet
592 -18 m 1,0,-1
 461 55 l 1,1,-1
 462 56 l 1,2,-1
 462 601 l 1,3,-1
 394 601 l 1,4,-1
 394 -92 l 1,5,-1
 255 -169 l 1,6,-1
 255 560 l 1,7,-1
 357 700 l 1,8,-1
 607 700 l 1,9,-1
 607 131 l 1,10,-1
 691 82 l 1,11,-1
 592 -18 l 1,0,-1
35 560 m 1,12,-1
 137 700 l 1,13,-1
 289 700 l 1,14,-1
 252 601 l 1,15,-1
 174 601 l 1,16,-1
 174 -92 l 1,17,-1
 35 -169 l 1,18,-1
 35 560 l 1,12,-1
EndSplineSet
EndChar
StartChar: longs_s
Encoding: 65553 -1 111
Width: 620
Flags: W
LayerCount: 2
Back
Fore
SplineSet
35 560 m 1,0,-1
 137 700 l 1,1,-1
 379 700 l 1,2,-1
 342 601 l 1,3,-1
 174 601 l 1,4,-1
 174 -92 l 1,5,-1
 35 -169 l 1,6,-1
 35 560 l 1,0,-1
223 411 m 1,7,-1
 325 528 l 1,8,-1
 580 528 l 1,9,-1
 506 411 l 1,10,-1
 358 408 l 1,11,-1
 358 293 l 1,12,-1
 390 276 l 1,13,-1
 456 388 l 1,14,-1
 577 305 l 1,15,-1
 577 117 l 1,16,-1
 475 0 l 1,17,-1
 219 0 l 1,18,-1
 293 117 l 1,19,-1
 442 119 l 1,20,-1
 441 235 l 1,21,-1
 409 252 l 1,22,-1
 343 140 l 1,23,-1
 223 222 l 1,24,-1
 223 411 l 1,7,-1
EndSplineSet
EndChar
StartChar: m_m
Encoding: 65557 -1 146
Width: 682
Flags: W
LayerCount: 2
Back
Fore
SplineSet
516 545 m 1,0,-1
 647 472 l 1,1,-1
 646 471 l 1,2,-1
 646 0 l 1,3,-1
 501 0 l 1,4,-1
 501 396 l 1,5,-1
 413 446 l 1,6,-1
 413 0 l 1,7,-1
 268 0 l 1,8,-1
 268 396 l 1,9,-1
 180 446 l 1,10,-1
 180 0 l 1,11,-1
 35 0 l 1,12,-1
 35 528 l 1,13,-1
 180 528 l 1,14,-1
 180 472 l 1,15,-1
 283 545 l 1,16,-1
 413 472 l 1,17,-1
 516 545 l 1,0,-1
82 691 m 1,18,-1
 648 691 l 1,19,-1
 601 605 l 1,20,-1
 35 605 l 1,21,-1
 82 691 l 1,18,-1
EndSplineSet
EndChar
StartChar: n_n
Encoding: 65558 -1 147
Width: 449
Flags: W
LayerCount: 2
Back
Fore
SplineSet
413 0 m 1,0,-1
 268 0 l 1,1,-1
 268 396 l 1,2,-1
 180 446 l 1,3,-1
 180 0 l 1,4,-1
 35 0 l 1,5,-1
 35 528 l 1,6,-1
 180 528 l 1,7,-1
 180 472 l 1,8,-1
 284 545 l 1,9,-1
 414 473 l 1,10,-1
 413 0 l 1,0,-1
35 605 m 1,11,-1
 82 691 l 1,12,-1
 414 691 l 1,13,-1
 367 605 l 1,14,-1
 35 605 l 1,11,-1
EndSplineSet
EndChar
StartChar: roundr
Encoding: 65560 -1 242
Width: 366
Flags: W
LayerCount: 2
Back
Fore
SplineSet
230 -11 m 1,0,-1
 32 76 l 1,1,-1
 175 408 l 1,2,-1
 128 438 l 1,3,-1
 69 379 l 1,4,-1
 44 410 l 1,5,-1
 182 557 l 1,6,-1
 325 470 l 1,7,-1
 189 137 l 1,8,-1
 321 81 l 1,9,-1
 230 -11 l 1,0,-1
EndSplineSet
EndChar
StartChar: t_t
Encoding: 65542 -1 84
Width: 508
Flags: W
LayerCount: 2
Back
Fore
SplineSet
159 -18 m 1,0,-1
 49 55 l 1,1,-1
 50 56 l 1,2,-1
 50 415 l 1,3,-1
 16 415 l 1,4,-1
 50 473 l 1,5,-1
 50 598 l 1,6,-1
 195 700 l 1,7,-1
 195 528 l 1,8,-1
 276 528 l 1,9,-1
 276 598 l 1,10,-1
 421 700 l 1,11,-1
 421 528 l 1,12,-1
 497 528 l 1,13,-1
 457 415 l 1,14,-1
 421 415 l 1,15,-1
 421 131 l 1,16,-1
 484 82 l 1,17,-1
 385 -18 l 1,18,-1
 275 55 l 1,19,-1
 276 56 l 1,20,-1
 276 415 l 1,21,-1
 195 415 l 1,22,-1
 195 131 l 1,23,-1
 258 82 l 1,24,-1
 159 -18 l 1,25,-1
 159 -18 l 1,0,-1
EndSplineSet
EndChar
StartChar: t_z
Encoding: 65543 -1 85
Width: 492
Flags: W
LayerCount: 2
Back
Fore
SplineSet
68 55 m 1,0,-1
 69 56 l 1,1,-1
 69 416 l 1,2,-1
 35 416 l 1,3,-1
 69 473 l 1,4,-1
 69 598 l 1,5,-1
 214 700 l 1,6,-1
 214 528 l 1,7,-1
 361 528 l 2,8,9
 401 528 401 528 429 500 c 128,-1,10
 457 472 457 472 457 432 c 2,11,-1
 457 348 l 1,12,-1
 349 269 l 1,13,-1
 457 204 l 1,14,-1
 457 -62 l 1,15,-1
 355 -169 l 1,16,-1
 162 -169 l 1,17,-1
 231 -62 l 1,18,-1
 312 -62 l 1,19,-1
 312 146 l 1,20,-1
 214 198 l 1,21,-1
 214 131 l 1,22,-1
 277 82 l 1,23,-1
 178 -18 l 1,24,-1
 68 55 l 1,0,-1
214 416 m 1,25,-1
 214 226 l 1,26,-1
 312 294 l 1,27,28
 312 314 312 314 312.5 332.5 c 128,-1,29
 313 351 313 351 313 371 c 0,30,31
 313 390 313 390 300.5 403 c 128,-1,32
 288 416 288 416 269 416 c 2,33,-1
 214 416 l 1,25,-1
EndSplineSet
EndChar
